<?xml version="1.0" encoding="UTF-8"?>
<svg xmlns="http://www.w3.org/2000/svg" width="480" height="324" viewBox="0 0 480 324" fill="none">
  <g clip-path="url(#clip0_388_2995)">
    <g filter="url(#filter0_d_388_2995)">
      <path d="M415 30V246C415 248.21 413.21 250 411 250H71C68.79 250 67 248.21 67 246V30H415Z" fill="white"></path>
      <path d="M71 8H411C413.21 8 415 9.79 415 12V30H67V12C67 9.79 68.79 8 71 8Z" fill="#001B41"></path>
      <path d="M78 21.5C79.3807 21.5 80.5 20.3807 80.5 19C80.5 17.6193 79.3807 16.5 78 16.5C76.6193 16.5 75.5 17.6193 75.5 19C75.5 20.3807 76.6193 21.5 78 21.5Z" stroke="#95CAEB"></path>
      <path d="M88 21.5C89.3807 21.5 90.5 20.3807 90.5 19C90.5 17.6193 89.3807 16.5 88 16.5C86.6193 16.5 85.5 17.6193 85.5 19C85.5 20.3807 86.6193 21.5 88 21.5Z" stroke="#95CAEB"></path>
      <path d="M98 21.5C99.3807 21.5 100.5 20.3807 100.5 19C100.5 17.6193 99.3807 16.5 98 16.5C96.6193 16.5 95.5 17.6193 95.5 19C95.5 20.3807 96.6193 21.5 98 21.5Z" stroke="#95CAEB"></path>
    </g>
    <rect x="165" y="141" width="48" height="48" rx="4" fill="#1474C4"></rect>
    <path d="M189 157V173" stroke="white" stroke-linecap="round"></path>
    <path d="M181 165L197 165" stroke="white" stroke-linecap="round"></path>
    <g filter="url(#filter1_d_388_2995)">
      <path d="M298.231 141H231.769C230.24 141 229 142.24 229 143.769V210.231C229 211.76 230.24 213 231.769 213H298.231C299.76 213 301 211.76 301 210.231V143.769C301 142.24 299.76 141 298.231 141Z" fill="#95CAEB"></path>
    </g>
    <path d="M286.851 165.06C289.956 170.757 290.718 177.439 288.976 183.688C287.234 189.936 283.123 195.258 277.516 198.526L285.122 176.54C286.328 173.718 286.97 170.689 287.013 167.623C287.015 166.767 286.962 165.909 286.851 165.06ZM268.433 165.302C269.926 165.231 271.278 165.06 271.278 165.06C271.414 165.05 271.547 165.012 271.671 164.952C271.794 164.891 271.902 164.806 271.99 164.703C272.078 164.599 272.146 164.479 272.189 164.35C272.232 164.219 272.25 164.083 272.24 163.947C272.229 163.811 272.192 163.678 272.131 163.555C272.071 163.431 271.985 163.323 271.882 163.235C271.779 163.147 271.658 163.079 271.53 163.036C271.401 162.993 271.263 162.976 271.127 162.986C271.127 162.986 267.076 163.298 264.48 163.298C262.023 163.298 257.902 162.95 257.902 162.95C257.63 162.928 257.361 163.013 257.154 163.187C256.945 163.363 256.817 163.612 256.794 163.884C256.772 164.156 256.857 164.426 257.031 164.632C257.207 164.841 257.456 164.969 257.728 164.992C257.728 164.992 258.974 165.131 260.326 165.201L264.203 175.828L258.733 192.167L249.667 165.236C251.165 165.166 252.514 165.007 252.514 165.007C252.779 164.974 253.02 164.841 253.187 164.635C253.355 164.428 253.438 164.166 253.421 163.902C253.401 163.638 253.282 163.388 253.086 163.21C252.889 163.031 252.633 162.933 252.366 162.938C252.366 162.938 248.335 163.255 245.719 163.255C245.256 163.255 244.71 163.235 244.128 163.222C246.437 159.808 249.546 157.009 253.187 155.073C256.827 153.137 260.885 152.122 265.007 152.117C271.232 152.107 277.237 154.441 281.821 158.653C281.713 158.653 281.61 158.633 281.494 158.633C280.356 158.668 279.276 159.151 278.491 159.98C277.708 160.808 277.282 161.911 277.312 163.051C277.574 165.186 278.42 167.208 279.757 168.892C281.069 170.946 281.779 173.325 281.811 175.762C281.555 178.514 280.915 181.215 279.918 183.793L277.426 192.069L268.425 165.277L268.441 165.304L268.433 165.302ZM264.999 201.892C262.617 201.892 260.251 201.555 257.965 200.885L265.442 179.176L273.093 200.147C273.148 200.268 273.209 200.379 273.274 200.49C270.618 201.421 267.824 201.895 265.007 201.895L264.999 201.892ZM240.1 177.001C240.098 173.509 240.833 170.057 242.258 166.87L254.131 199.407C249.926 197.363 246.382 194.178 243.899 190.218C241.419 186.255 240.103 181.676 240.1 177.001ZM264.999 149.308C259.521 149.308 254.168 150.932 249.614 153.975C245.06 157.019 241.51 161.344 239.415 166.404C237.318 171.465 236.772 177.034 237.839 182.404C238.907 187.776 241.545 192.711 245.417 196.583C249.289 200.455 254.224 203.093 259.596 204.16C264.969 205.228 270.535 204.682 275.595 202.584C280.656 200.487 284.981 196.938 288.025 192.386C291.068 187.831 292.692 182.477 292.692 177.001C292.682 169.66 289.762 162.621 284.571 157.429C279.379 152.238 272.34 149.318 264.999 149.308Z" fill="#1474C4"></path>
    <g filter="url(#filter2_d_388_2995)">
      <path d="M210.231 53H143.769C142.24 53 141 54.2398 141 55.7692V122.231C141 123.76 142.24 125 143.769 125H210.231C211.76 125 213 123.76 213 122.231V55.7692C213 54.2398 211.76 53 210.231 53Z" fill="#DBEDF8"></path>
    </g>
    <path d="M186.147 72.6921C182.148 68.7986 178.362 64.9992 177.224 60.7097C176.097 65.0186 172.301 68.7986 168.302 72.6921C162.359 78.6294 155.602 85.3918 155.602 95.53C155.336 107.421 164.763 117.28 176.654 117.545C176.668 117.545 176.684 117.545 176.698 117.545C188.578 117.75 198.511 108.329 198.716 96.4494V95.5272C198.846 85.3863 192.076 78.6266 186.147 72.6921ZM166.687 97.474C166.048 98.2992 165.499 99.1909 165.051 100.135C164.946 100.24 164.846 100.443 164.641 100.443H164.536C164.026 100.443 163.511 99.5205 163.511 99.5205C163.409 99.3155 163.204 99.0054 163.101 98.8032L162.999 98.5983C161.667 95.7294 162.797 91.7361 162.797 91.7361C163.331 89.7589 164.195 87.8869 165.355 86.1977C166.073 85.1731 166.895 84.1485 167.709 83.1211L168.734 84.1429L173.547 89.0666C173.743 89.2521 173.754 89.5651 173.569 89.7617C173.563 89.77 173.555 89.7755 173.547 89.7838L168.529 95.4137L166.687 97.474ZM177.457 111.605C173.392 111.616 170.082 108.332 170.071 104.264C170.071 104.22 170.071 104.173 170.071 104.128C170.088 102.32 170.742 100.578 171.918 99.2048C173.458 97.3577 175.399 95.5134 177.548 93.0515C180.01 95.7128 181.644 97.4546 183.181 99.5121C183.306 99.67 183.408 99.8417 183.488 100.022C184.338 101.26 184.801 102.722 184.818 104.223C184.923 108.318 181.542 111.608 177.432 111.608H177.454L177.457 111.605ZM191.461 99.7171C191.328 100.019 191.065 100.246 190.744 100.332H190.638C190.362 100.221 190.115 100.047 189.921 99.8223C188.625 97.8783 187.152 96.0617 185.518 94.3946L183.574 92.3454L177.019 85.5774C175.687 84.3478 174.355 82.9161 173.126 81.5786C173.126 81.5232 173.084 81.4789 173.032 81.4761H173.026C172.796 81.1688 172.622 80.8198 172.511 80.4515V80.2494C172.326 79.1168 172.708 77.9675 173.536 77.1728C174.765 75.9432 176.094 74.614 177.327 73.2792C178.656 74.7137 180.096 76.1481 181.525 77.5881C184.386 80.2798 186.991 83.2291 189.309 86.3971C191.248 89.1165 192.286 92.3758 192.278 95.7128C192.092 97.0641 191.821 98.4017 191.458 99.7198L191.461 99.7171Z" fill="#1474C4"></path>
    <g filter="url(#filter3_d_388_2995)">
      <path d="M298.231 53H231.769C230.24 53 229 54.2398 229 55.7692V122.231C229 123.76 230.24 125 231.769 125H298.231C299.76 125 301 123.76 301 122.231V55.7692C301 54.2398 299.76 53 298.231 53Z" fill="#DBEDF8"></path>
    </g>
    <path d="M248.393 64.0936H267.241C277.661 64.0936 287.273 70.2717 287.273 81.8166C287.273 94.5634 275.62 99.6034 268.348 99.5397H261.389L261.325 113.798L248.269 113.923L248.393 64.0769V64.0936Z" fill="#1474C4"></path>
    <path d="M261.544 75.9655C261.746 76.1067 261.965 75.996 262.184 75.9655C262.153 75.9018 262.12 75.8575 262.089 75.8104C261.901 75.8741 261.729 75.9184 261.544 75.9821V75.9655Z" fill="#DBEDF8"></path>
    <path d="M262.278 75.9349V76.0899C262.278 76.0899 262.42 76.0899 262.497 76.0733V76.0263C262.497 76.0263 262.372 75.9819 262.278 75.9349Z" fill="#DBEDF8"></path>
    <path d="M261.45 75.5584L261.356 75.4643C261.356 75.4643 261.309 75.5723 261.262 75.6664C261.325 75.6664 261.37 75.6664 261.417 75.6498C261.433 75.6498 261.464 75.5861 261.447 75.5557L261.45 75.5584Z" fill="#DBEDF8"></path>
    <path d="M261.312 76.6217C261.312 76.6217 261.406 76.6854 261.453 76.7159C261.453 76.871 261.5 76.918 261.624 76.8876V76.6384C261.53 76.6384 261.422 76.6079 261.312 76.5913V76.6384V76.6217Z" fill="#DBEDF8"></path>
    <path d="M262.403 75.2483C262.403 75.2483 262.278 75.3259 262.215 75.3425C262.137 75.3591 262.059 75.3591 261.965 75.3729C261.965 75.3729 261.918 75.3259 261.902 75.2954C261.824 75.3729 261.76 75.42 261.699 75.4837L261.669 75.4532C261.669 75.4532 261.686 75.3452 261.699 75.2816H261.45C261.45 75.2816 261.45 75.204 261.434 75.1736C261.37 75.1902 261.309 75.2206 261.231 75.2511C261.373 75.3452 261.45 75.4394 261.467 75.4699C261.531 75.4699 261.591 75.5003 261.639 75.5003H261.81C261.982 75.4366 262.107 75.5308 262.09 75.7191C262.184 75.7357 262.292 75.7662 262.386 75.7828V75.7357C262.527 75.6277 262.494 75.3923 262.76 75.3923C262.635 75.2982 262.558 75.1902 262.417 75.2372H262.4V75.2539L262.403 75.2483Z" fill="#DBEDF8"></path>
    <path d="M260.251 88.0089C260.126 88.0726 260.002 88.1169 259.86 88.1806C260.015 88.2443 260.22 88.164 260.251 88.0089Z" fill="#DBEDF8"></path>
    <path d="M262.449 74.8576C262.668 75.0598 262.776 75.046 262.887 74.7635C262.84 74.794 262.793 74.8272 262.746 74.841C262.543 74.6998 262.527 74.6998 262.449 74.841V74.8576Z" fill="#DBEDF8"></path>
    <path d="M261.265 77.8069C261.157 77.8069 261.123 77.7765 261.17 77.6823C261.187 77.6353 261.187 77.5743 261.201 77.5273H261.046C261.109 77.3389 261.234 77.5577 261.312 77.4802C261.234 77.4165 261.17 77.3389 261.093 77.3085C260.985 77.2448 260.874 77.2143 260.749 77.1839C260.733 77.1839 260.702 77.2005 260.655 77.2143C260.749 77.2919 260.827 77.3694 260.874 77.4165C260.905 77.5411 260.686 77.5245 260.78 77.6353C260.827 77.6989 260.935 77.6989 261.015 77.7294V77.8236C261.123 77.854 261.234 77.8706 261.342 77.8873V77.8402C261.342 77.8402 261.278 77.8097 261.248 77.8236L261.265 77.8069Z" fill="#DBEDF8"></path>
    <path d="M263.463 75.1375C263.557 75.1375 263.635 75.1679 263.729 75.1845V75.107C263.635 75.107 263.557 75.0904 263.463 75.0765V75.1402V75.1375Z" fill="#DBEDF8"></path>
    <path d="M263.526 75.2317C263.526 75.2317 263.385 75.2013 263.308 75.2013C263.277 75.3093 263.261 75.42 263.23 75.528C263.23 75.528 263.213 75.4976 263.2 75.4976C263.105 75.5446 263.011 75.6056 262.903 75.6526V75.6831H263.122C263.122 75.6831 263.122 75.7468 263.105 75.7911L263.136 75.8216C263.136 75.8216 263.244 75.744 263.324 75.697C263.388 75.7274 263.449 75.7136 263.479 75.6028C263.479 75.5557 263.543 75.5391 263.573 75.4948C263.604 75.4477 263.651 75.4006 263.637 75.3536C263.637 75.3231 263.573 75.276 263.529 75.2594V75.229L263.526 75.2317Z" fill="#DBEDF8"></path>
    <path d="M263.322 73.4371C263.322 73.4371 263.416 73.39 263.477 73.3734C263.601 73.3734 263.554 73.2958 263.54 73.2487C263.446 73.2792 263.369 73.2958 263.305 73.3263C263.274 73.3263 263.258 73.3567 263.241 73.3734C263.272 73.3734 263.305 73.4204 263.319 73.4204L263.322 73.4371Z" fill="#DBEDF8"></path>
    <path d="M273.964 72.9693C273.964 72.9693 274.106 72.8446 274.167 72.7671C274.167 72.7505 274.136 72.7366 274.12 72.72C274.025 72.7837 273.948 72.8446 273.823 72.9222C273.887 72.9388 273.948 72.9693 273.964 72.9526V72.9693Z" fill="#DBEDF8"></path>
    <path d="M260.342 84.0792C260.248 84.0958 260.123 84.1097 260.107 84.1429C260.076 84.2841 260.076 84.4226 260.076 84.5638H260.14C260.204 84.4088 260.264 84.2509 260.342 84.0792Z" fill="#DBEDF8"></path>
    <path d="M275.055 74.8743C275.055 74.7497 275.038 74.6555 275.024 74.5309C274.96 74.578 274.869 74.6085 274.852 74.6555C274.836 74.7635 274.93 74.8272 275.055 74.8909V74.8743Z" fill="#DBEDF8"></path>
    <path d="M261.17 75.622C261.139 75.4974 260.935 75.4808 261.029 75.3091C260.921 75.3091 260.84 75.3257 260.779 75.3396C260.779 75.4476 260.763 75.5279 260.749 75.6663C260.89 75.5113 261.015 75.478 261.17 75.6193V75.622Z" fill="#DBEDF8"></path>
    <path d="M262.262 74.545C262.262 74.545 262.325 74.592 262.37 74.592H262.649C262.649 74.592 262.68 74.5145 262.696 74.4508H262.478C262.478 74.4508 262.336 74.4674 262.275 74.4813V74.545H262.262Z" fill="#DBEDF8"></path>
    <path d="M262.325 74.1711C262.433 74.1711 262.449 74.1075 262.419 74.0299C262.466 73.9219 262.389 73.9053 262.325 73.9219C262.261 73.9385 262.231 74.0161 262.184 74.0631C262.231 74.1102 262.278 74.1711 262.325 74.1878V74.1711Z" fill="#DBEDF8"></path>
    <path d="M263.089 74.2816C263.106 74.4063 263.136 74.517 263.291 74.5004C263.291 74.4533 263.291 74.4229 263.261 74.3758C263.338 74.3758 263.385 74.4063 263.449 74.4229C263.372 74.2983 263.247 74.2512 263.075 74.2816H263.092H263.089Z" fill="#DBEDF8"></path>
    <path d="M263.09 74.1876L263.059 74.1571H263.261C263.114 74.063 262.995 74.0796 262.901 74.2042C262.76 74.3925 262.777 74.3593 262.713 74.4396C262.713 74.4562 262.743 74.5033 262.777 74.5476C262.885 74.423 262.995 74.3122 263.09 74.1876Z" fill="#DBEDF8"></path>
    <path d="M261.076 84.7965C261.076 84.7965 260.968 84.8436 260.904 84.8602C260.921 84.9377 260.951 85.0152 260.951 85.0485C260.857 85.1565 260.796 85.2202 260.716 85.2977L260.746 85.3282C260.746 85.3282 260.871 85.2645 260.901 85.2506C260.948 85.2811 261.009 85.3448 261.026 85.3282C261.073 85.2977 261.09 85.2506 261.134 85.1869C261.198 85.2036 261.259 85.1869 261.228 85.0789V84.9709C261.228 84.9709 261.259 84.8297 261.245 84.8159C261.198 84.7854 261.12 84.7854 261.056 84.7854H261.073V84.802L261.076 84.7965Z" fill="#DBEDF8"></path>
    <path d="M274.571 73.3124C274.415 73.2958 274.368 73.3761 274.321 73.5008C274.476 73.5008 274.51 73.4066 274.571 73.3124Z" fill="#DBEDF8"></path>
    <path d="M265.662 72.2049C265.521 72.0498 265.413 72.2049 265.288 72.2215C265.396 72.4098 265.662 72.4403 265.911 72.2686C265.895 72.2215 265.881 72.1911 265.864 72.1606C265.787 72.1606 265.676 72.2243 265.662 72.1911V72.2077V72.2049Z" fill="#DBEDF8"></path>
    <path d="M265.15 72.7976C265.15 72.7976 265.119 72.8613 265.103 72.9056C265.211 72.8751 265.274 72.8585 265.338 72.8419C265.291 72.7477 265.213 72.7782 265.15 72.8114V72.7976Z" fill="#DBEDF8"></path>
    <path d="M264.15 72.9388C264.15 72.9388 264.103 72.8612 264.086 72.8308C264.086 72.8308 264.056 72.8308 264.039 72.8474C264.056 72.9111 264.056 72.9886 264.103 73.0024C264.15 73.0329 264.227 73.0024 264.274 73.0024C264.338 72.972 264.382 72.9249 264.463 72.8612V72.7366C264.355 72.8141 264.261 72.8778 264.166 72.9388H264.15Z" fill="#DBEDF8"></path>
    <path d="M264.931 72.3296C264.931 72.3296 264.682 72.4542 264.682 72.5013C264.682 72.5179 264.682 72.5484 264.712 72.565C264.743 72.6121 264.776 72.6592 264.806 72.7062V72.6425C264.914 72.5789 265.042 72.5345 265.166 72.4542C265.072 72.4072 264.995 72.3601 264.917 72.3296H264.931Z" fill="#DBEDF8"></path>
    <path d="M260.062 84.9348C260.234 84.9985 260.342 84.9348 260.328 84.7465C260.234 84.7465 260.156 84.7631 260.079 84.777C260.032 84.777 260.001 84.8241 259.971 84.8407C260.001 84.8711 260.018 84.9182 260.065 84.9182V84.9348H260.062Z" fill="#DBEDF8"></path>
    <path d="M275.305 75.9656H275.18C275.18 75.9656 275.116 76.0597 275.086 76.1068C275.055 76.0763 275.022 76.0597 274.992 76.0293C274.961 76.0459 274.914 76.0763 274.867 76.093V76.2813C274.867 76.2813 274.961 76.2813 275.022 76.2647C274.992 76.3117 274.975 76.3588 274.945 76.4197C275.1 76.3893 275.211 76.356 275.335 76.3256C275.335 76.3256 275.366 76.2951 275.366 76.2785C275.396 76.201 275.413 76.1234 275.443 76.0293C275.396 76.0597 275.349 76.0597 275.319 76.093V75.985H275.302V75.9683L275.305 75.9656Z" fill="#DBEDF8"></path>
    <path d="M274.103 74.6556C274.103 74.6556 274.15 74.7498 274.18 74.7969C274.258 74.7332 274.335 74.6723 274.416 74.6086C274.274 74.4535 274.197 74.5919 274.089 74.6556H274.103Z" fill="#DBEDF8"></path>
    <path d="M274.308 75.9183C274.308 75.9183 274.308 75.9654 274.324 75.982C274.388 76.0291 274.59 75.982 274.637 75.9183C274.543 75.9017 274.449 75.8879 274.357 75.8712C274.357 75.8712 274.31 75.9017 274.31 75.9349L274.308 75.9183Z" fill="#DBEDF8"></path>
    <path d="M271.951 90.49C271.951 90.49 272.059 90.5205 272.106 90.5205C272.137 90.5205 272.153 90.4568 272.17 90.4263C272.17 90.4263 272.139 90.4097 272.123 90.3959C272.123 90.4263 272.106 90.4596 272.092 90.4734C272.045 90.4734 271.998 90.4734 271.951 90.4568V90.5039V90.49Z" fill="#DBEDF8"></path>
    <path d="M260.343 85.7465C260.343 85.7465 260.359 85.8102 260.373 85.8407C260.437 85.8102 260.498 85.7936 260.561 85.7632C260.561 85.7465 260.561 85.7161 260.545 85.6995L260.356 85.7465H260.34H260.343Z" fill="#DBEDF8"></path>
    <path d="M260.466 85.187C260.466 85.187 260.466 85.1565 260.45 85.1565C260.45 85.1565 260.419 85.1399 260.419 85.1565C260.295 85.187 260.17 85.1261 260.046 85.2645C259.938 85.4058 259.672 85.4058 259.547 85.5913C259.547 85.5442 259.517 85.5138 259.5 85.4667C259.436 85.4833 259.375 85.4971 259.312 85.5304C259.295 85.5304 259.281 85.6079 259.281 85.6384C259.281 85.6384 259.328 85.6855 259.345 85.6688C259.47 85.6384 259.594 85.5913 259.735 85.5442C259.782 85.5442 259.83 85.4971 259.86 85.5138C259.907 85.5138 259.985 85.5442 259.985 85.5608C259.985 85.6079 259.985 85.6854 259.954 85.7159C259.86 85.8101 259.766 85.9042 259.641 85.9347C259.611 85.9347 259.594 85.9651 259.533 85.9984C259.688 85.9984 259.813 85.9984 259.924 85.9513C260.034 85.9042 260.112 85.8101 260.19 85.763C260.159 85.7325 260.095 85.6993 260.048 85.6688C260.048 85.6522 260.048 85.6384 260.065 85.6218H260.173C260.173 85.6218 260.314 85.5581 260.314 85.5276C260.314 85.3864 260.314 85.2618 260.455 85.1842H260.472L260.466 85.187Z" fill="#DBEDF8"></path>
    <path d="M260.015 84.5305C259.921 84.6247 259.719 84.561 259.672 84.7327C259.78 84.7964 260.015 84.6856 260.015 84.5305Z" fill="#DBEDF8"></path>
    <path d="M260.53 84.0792H260.422C260.453 84.1872 260.328 84.2038 260.298 84.2675C260.328 84.3146 260.362 84.3617 260.392 84.4088C260.439 84.4088 260.5 84.3921 260.564 84.3783C260.533 84.3312 260.517 84.3146 260.486 84.2703H260.705C260.705 84.2703 260.597 84.1291 260.533 84.0986V84.082L260.53 84.0792Z" fill="#DBEDF8"></path>
    <path d="M259.921 86.433C259.921 86.433 259.766 86.4635 259.686 86.4967C259.78 86.5438 259.857 86.5438 259.888 86.5908C259.965 86.685 260.012 86.6379 260.106 86.5908C260.029 86.5272 259.982 86.4358 259.918 86.4192V86.4358L259.921 86.433Z" fill="#DBEDF8"></path>
    <path d="M274.042 88.3993V88.3688L273.807 88.2747C273.807 88.2747 273.807 88.3051 273.79 88.3217C273.837 88.4159 273.931 88.3993 274.025 88.3993H274.042Z" fill="#DBEDF8"></path>
    <path d="M274.18 88.3053C274.335 88.2749 274.244 88.1032 274.335 88.009C274.382 88.009 274.429 88.0395 274.476 88.0561C274.554 88.009 274.601 87.9619 274.695 87.901H274.476C274.476 87.901 274.446 87.8069 274.429 87.7764C274.382 87.8069 274.321 87.8235 274.288 87.8401C274.21 87.8401 274.116 87.8567 274.116 87.8705C274.1 88.0118 273.975 88.0589 273.881 88.1198C273.928 88.2444 274.036 88.3386 274.177 88.3081L274.18 88.3053Z" fill="#DBEDF8"></path>
    <path d="M275.664 77.3527C275.711 77.2586 275.728 77.1644 275.741 77.0564C275.741 77.1035 275.711 77.1506 275.678 77.181V77.3527H275.664Z" fill="#DBEDF8"></path>
    <path d="M275.759 75.7632C275.759 75.7632 275.789 75.5915 275.822 75.5139C275.822 75.561 275.792 75.6081 275.775 75.6552V75.7632H275.759Z" fill="#DBEDF8"></path>
    <path d="M260.295 75.5917V75.6692C260.295 75.8409 260.295 75.996 260.312 76.1677V76.0126C260.328 75.8714 260.281 75.7329 260.265 75.6083H260.295V75.5917Z" fill="#DBEDF8"></path>
    <path d="M273.728 76.6051C273.728 76.6051 273.759 76.6051 273.759 76.6217C273.806 76.6522 273.867 76.6522 273.914 76.6688C273.883 76.6688 273.85 76.6522 273.82 76.6384C273.803 76.6384 273.773 76.6217 273.726 76.6079L273.728 76.6051Z" fill="#DBEDF8"></path>
    <path d="M275.725 76.7768C275.725 76.7768 275.694 76.7464 275.661 76.7464C275.678 76.6993 275.708 76.6522 275.725 76.6051C275.694 76.6522 275.678 76.6993 275.661 76.7464C275.661 76.7464 275.692 76.7464 275.725 76.7768Z" fill="#DBEDF8"></path>
    <path d="M274.025 72.7034H273.978C273.978 72.7034 273.9 72.7034 273.87 72.673C273.48 72.3767 273.075 72.1413 272.638 71.9696C273.042 72.1579 273.449 72.3905 273.9 72.7034C273.948 72.7339 273.995 72.7339 274.025 72.7034Z" fill="#DBEDF8"></path>
    <path d="M275.119 73.4843C275.119 73.4843 275.011 73.3901 274.964 73.343L275.105 73.4843H275.122H275.119Z" fill="#DBEDF8"></path>
    <path d="M274.604 76.8074H274.573C274.667 76.8544 274.745 76.932 274.792 77.0261C274.762 76.932 274.714 76.824 274.59 76.7907H274.606L274.604 76.8074Z" fill="#DBEDF8"></path>
    <path d="M259.268 87.5407C259.16 87.3219 259.049 87.0727 258.941 86.8235C259.019 87.0727 259.13 87.3081 259.268 87.5407Z" fill="#DBEDF8"></path>
    <path d="M261.14 83.423H261.248C261.248 83.423 261.17 83.4064 261.14 83.423Z" fill="#DBEDF8"></path>
    <path d="M261.419 90.2713C261.419 90.2713 261.372 90.2242 261.342 90.2076C261.372 90.2242 261.389 90.2547 261.419 90.2713Z" fill="#DBEDF8"></path>
    <path d="M261.265 90.1468C261.265 90.1468 261.248 90.1468 261.234 90.1302C261.234 90.1302 261.251 90.1302 261.265 90.1468Z" fill="#DBEDF8"></path>
    <path d="M274.243 72.7671C274.243 72.7671 274.213 72.7504 274.196 72.7366C274.243 72.7671 274.304 72.8141 274.351 72.8446C274.321 72.8141 274.274 72.7975 274.243 72.7671Z" fill="#DBEDF8"></path>
    <path d="M268.425 87.9148C267.816 87.8511 267.223 87.7597 266.631 87.6351C267.287 87.7901 267.941 87.8843 268.567 87.9314H268.425V87.9148Z" fill="#DBEDF8"></path>
    <path d="M275.759 76.8708V76.9955C275.759 76.9955 275.775 76.9013 275.759 76.8708Z" fill="#DBEDF8"></path>
    <path d="M274.54 88.4631C274.54 88.4631 274.587 88.3385 274.604 88.2609C274.667 88.1059 274.712 87.948 274.759 87.7929C274.695 87.9812 274.618 88.1529 274.57 88.3385C274.57 88.3689 274.554 88.4022 274.54 88.4465V88.4631Z" fill="#DBEDF8"></path>
    <path d="M261.715 90.4733C261.621 90.4096 261.527 90.3487 261.436 90.2711C261.654 90.4428 261.904 90.5979 262.153 90.7391C262.216 90.7696 262.277 90.8471 262.341 90.8804C262.341 90.8804 262.277 90.8333 262.264 90.8028C262.169 90.7087 261.937 90.6145 261.718 90.476L261.715 90.4733Z" fill="#DBEDF8"></path>
    <path d="M262.699 91.0659C262.699 91.0659 262.777 91.0825 262.807 91.0964C262.885 91.1434 262.979 91.1739 263.056 91.2044C262.962 91.1573 262.868 91.1102 262.777 91.0631L262.699 91.0659Z" fill="#DBEDF8"></path>
    <path d="M258.813 84.9351C258.813 84.9351 258.844 84.7329 258.955 84.5917C258.891 84.6692 258.847 84.7468 258.813 84.8409C258.797 84.9185 258.75 84.996 258.705 85.0292C258.675 85.0597 258.642 85.0929 258.611 85.1372C258.658 85.0735 258.736 85.0126 258.813 84.9351Z" fill="#DBEDF8"></path>
    <path d="M264.463 76.7603V76.7907C264.463 76.7907 264.588 76.6495 264.651 76.5886C264.588 76.6357 264.51 76.6966 264.463 76.7603Z" fill="#DBEDF8"></path>
    <path d="M265.086 76.3698C265.258 76.3227 265.429 76.2618 265.601 76.2147C265.476 76.2313 265.352 76.2618 265.241 76.3089C265.194 76.3255 265.147 76.356 265.086 76.3726V76.3698Z" fill="#DBEDF8"></path>
    <path d="M270.001 91.8635H270.031C270.311 91.7693 270.593 91.6918 270.873 91.5976C270.873 91.5976 270.904 91.5976 270.904 91.581C270.826 91.6115 270.762 91.6115 270.668 91.6281C270.466 91.7223 270.2 91.8164 269.981 91.8939V91.8635H270.001Z" fill="#DBEDF8"></path>
    <path d="M274.9 85.8268C274.87 85.5 274.836 85.1705 274.792 84.8437V84.78C274.809 84.9517 274.822 85.1234 274.839 85.2314C274.856 85.356 274.886 85.5748 274.917 85.824L274.9 85.8268Z" fill="#DBEDF8"></path>
    <path d="M266.725 92.2069C266.725 92.2069 266.897 92.2069 266.974 92.2235C266.648 92.2069 266.304 92.1598 265.944 92.0989C266.194 92.146 266.459 92.1764 266.709 92.1931H266.725V92.2069Z" fill="#DBEDF8"></path>
    <path d="M260.157 83.5171C260.157 83.5171 260.079 83.5641 260.032 83.5807C260.096 83.5974 260.14 83.5808 260.157 83.5171Z" fill="#DBEDF8"></path>
    <path d="M265.88 77.605C265.88 77.605 265.974 77.6355 266.052 77.6687C265.739 77.5441 265.429 77.4195 265.146 77.2478C265.177 77.2644 265.21 77.2948 265.241 77.3115C265.429 77.389 265.739 77.5302 265.897 77.5912H265.88V77.605Z" fill="#DBEDF8"></path>
    <path d="M264.601 76.918L264.665 76.9485C264.665 76.9485 264.54 76.8544 264.477 76.8073C264.493 76.8544 264.554 76.8848 264.618 76.9153L264.601 76.918Z" fill="#DBEDF8"></path>
    <path d="M266.459 75.982C266.459 75.982 266.553 75.9653 266.6 75.9515C266.772 75.921 266.96 75.8878 267.132 75.874C266.93 75.9044 266.741 75.921 266.57 75.9515C266.553 75.9515 266.503 75.9681 266.459 75.982Z" fill="#DBEDF8"></path>
    <path d="M272.887 76.6217C272.887 76.6217 272.779 76.6688 272.731 76.6854C272.839 76.6688 272.934 76.6383 273.044 76.6078H272.889V76.6245L272.887 76.6217Z" fill="#DBEDF8"></path>
    <path d="M269.204 83.9075C269.827 84.2204 270.436 84.5638 270.999 84.9847C270.982 84.9847 270.968 84.9543 270.935 84.9377C270.483 84.5638 269.874 84.2509 269.204 83.9075Z" fill="#DBEDF8"></path>
    <path d="M261.669 80.0694C262.339 80.6011 263.073 81.0525 263.837 81.4264C264.056 81.5344 264.289 81.6451 264.507 81.7531C263.447 81.2214 262.572 80.7396 262.184 80.4571C262.012 80.3325 261.841 80.2079 261.652 80.0833H261.669V80.0694Z" fill="#DBEDF8"></path>
    <path d="M272.028 85.9652C271.981 85.7769 271.748 85.5914 271.419 85.3422C271.574 85.4668 271.746 85.608 271.87 85.7465C271.978 85.8711 272.025 85.9957 272.025 86.1369L272.028 85.9652Z" fill="#DBEDF8"></path>
    <path d="M267.271 83.0019C267.379 83.049 267.473 83.096 267.583 83.1431C268.129 83.3924 268.675 83.6416 269.206 83.9074C269.018 83.8133 268.832 83.7191 268.644 83.6277C268.207 83.409 267.755 83.204 267.271 83.0019Z" fill="#DBEDF8"></path>
    <path d="M270.389 87.6516C269.968 87.8233 269.547 87.9175 269.093 87.9313H269.217C269.608 87.9313 270.012 87.8233 270.389 87.6516Z" fill="#DBEDF8"></path>
    <path d="M264.383 86.9344C263.807 86.6852 263.275 86.3584 262.807 85.9208C262.605 85.7325 262.417 85.547 262.262 85.3448C262.73 85.9375 263.447 86.5301 264.4 86.9205H264.383V86.9344Z" fill="#DBEDF8"></path>
    <path d="M261.06 79.3828C261.06 79.3828 261.154 79.5379 261.201 79.6182C261.201 79.6182 261.217 79.6487 261.231 79.6653C261.231 79.6182 261.201 79.5573 261.168 79.5241C261.12 79.477 261.09 79.4299 261.06 79.3828Z" fill="#DBEDF8"></path>
    <path d="M272.419 76.5747C272.419 76.5747 272.483 76.6052 272.513 76.6218C272.496 76.6218 272.483 76.5913 272.466 76.5913H272.419V76.5747Z" fill="#DBEDF8"></path>
    <path d="M271.654 86.7764C271.762 86.6518 271.856 86.5411 271.92 86.4164C271.732 86.6961 271.53 86.9315 271.28 87.1198C271.422 87.0118 271.56 86.8844 271.671 86.7598H271.654V86.7764Z" fill="#DBEDF8"></path>
    <path d="M273.587 89.9584C273.493 90.036 273.338 90.1606 273.166 90.2852C273.321 90.1911 273.462 90.0831 273.587 89.9584Z" fill="#DBEDF8"></path>
    <path d="M274.011 89.4903C274.011 89.4903 274.028 89.4598 274.041 89.4598C274.011 89.4903 273.978 89.5374 273.947 89.5678C273.964 89.5374 273.994 89.5208 274.011 89.4903Z" fill="#DBEDF8"></path>
    <path d="M273.479 81.6758C273.759 81.9887 273.995 82.3154 274.197 82.6893C273.995 82.3293 273.759 81.9859 273.479 81.6758Z" fill="#DBEDF8"></path>
    <path d="M274.415 88.8508C274.415 88.8508 274.446 88.7871 274.446 88.7428C274.415 88.8204 274.382 88.8979 274.338 88.9616C274.368 88.9311 274.385 88.8841 274.402 88.837L274.418 88.8536L274.415 88.8508Z" fill="#DBEDF8"></path>
    <path d="M271.748 91.1767C271.748 91.1767 271.718 91.1767 271.701 91.1933C271.718 91.1933 271.732 91.1933 271.748 91.1767Z" fill="#DBEDF8"></path>
    <path d="M275.304 77.4774C275.304 77.4774 275.132 77.4138 275.055 77.3694C275.132 77.4165 275.21 77.4636 275.304 77.4774Z" fill="#DBEDF8"></path>
    <path d="M275.758 76.8709C275.758 76.8709 275.742 76.8072 275.711 76.7768L275.648 76.7463C275.648 76.7463 275.678 76.6522 275.711 76.6051C275.742 76.5275 275.775 76.4639 275.789 76.3863C275.806 76.3226 275.789 76.2451 275.772 76.1842C275.725 76.1842 275.664 76.2008 275.57 76.2146C275.648 76.1066 275.711 76.0263 275.772 75.9349C275.725 75.9183 275.695 75.9045 275.664 75.8879C275.695 75.8408 275.728 75.8242 275.742 75.7799V75.6552C275.742 75.6552 275.772 75.5611 275.789 75.514C275.789 75.4835 275.789 75.4503 275.806 75.4365C275.853 75.2648 275.853 75.1097 275.742 74.9519C275.711 74.9048 275.617 74.8577 275.587 74.8743C275.523 74.9048 275.415 74.9519 275.493 75.0765C275.523 75.1235 275.54 75.2011 275.57 75.2952H275.429C275.429 75.2952 275.351 75.2482 275.304 75.2482C275.227 75.2482 275.163 75.2786 275.196 75.3562C275.227 75.4199 275.304 75.4642 275.385 75.4808C275.432 75.4808 275.493 75.4337 275.556 75.4171C275.573 75.4171 275.587 75.3866 275.603 75.37C275.603 75.37 275.634 75.3866 275.65 75.4005C275.62 75.4642 275.603 75.5417 275.556 75.5722C275.493 75.6192 275.401 75.6359 275.321 75.6663C275.257 75.5583 275.166 75.5583 274.961 75.6663C274.961 75.7743 274.93 75.8851 274.82 76.0263C274.803 75.9626 274.756 75.9017 274.756 75.8546C274.773 75.7466 274.834 75.6525 274.864 75.5583V75.5112C274.864 75.5112 274.77 75.5112 274.723 75.4946C274.706 75.5251 274.692 75.5583 274.659 75.5888H274.706C274.706 75.5888 274.753 75.6968 274.723 75.7134C274.692 75.7439 274.629 75.7771 274.568 75.7909C274.551 75.7909 274.521 75.7605 274.49 75.7272L274.396 75.6331L274.426 75.6026C274.379 75.4309 274.534 75.4143 274.629 75.3672C274.692 75.3368 274.737 75.3035 274.8 75.2897C274.831 75.2897 274.864 75.2592 274.894 75.2731C274.989 75.3368 275.036 75.2731 275.036 75.1955C275.036 75.0875 275.113 75.0405 275.191 74.9934C275.238 74.9629 275.299 74.9159 275.346 74.8688C275.299 74.8688 275.282 74.8522 275.221 74.8217C275.315 74.7746 275.376 74.7442 275.457 74.7275C275.645 74.6805 275.722 74.5725 275.675 74.3842C275.581 74.3842 275.487 74.3537 275.396 74.3371V74.2734C275.396 74.2734 275.551 74.2568 275.614 74.2429C275.614 74.1792 275.567 74.1488 275.379 74.0546C275.426 73.8525 275.379 73.7417 275.177 73.6503C275.146 73.6337 275.083 73.6337 275.052 73.6199V73.7749C274.911 73.8691 274.864 73.8691 274.786 73.7749C274.881 73.6669 274.975 73.5728 275.083 73.4482L274.942 73.3069C274.739 73.1519 274.521 72.9802 274.318 72.8223C274.271 72.7919 274.21 72.7448 274.163 72.7143C274.147 72.7143 274.116 72.7143 274.1 72.6977C274.1 72.7143 274.13 72.7282 274.147 72.7448C274.083 72.8085 274.022 72.886 273.945 72.9469C273.928 72.9469 273.867 72.9303 273.803 72.9165C273.911 72.8389 274.006 72.7752 274.1 72.7143H274.006C274.006 72.7143 273.928 72.7309 273.881 72.7143C273.413 72.4014 273.009 72.1688 272.618 71.9805C271.962 71.7146 271.245 71.5595 270.527 71.482C269.716 71.3879 268.888 71.374 268.077 71.4654C267.501 71.5291 266.938 71.6371 266.36 71.7146C266.313 71.7146 266.235 71.7146 266.266 71.8088C266.266 71.8088 266.171 71.8559 266.141 71.8392C265.939 71.7312 265.781 71.8559 265.595 71.8863C265.626 71.95 265.642 71.9805 265.673 72.058C265.609 72.0275 265.579 72.0109 265.532 71.9805C265.501 72.0275 265.468 72.058 265.468 72.0746C265.36 72.0442 265.28 71.9805 265.202 71.9971C264.967 72.0608 264.751 72.1383 264.515 72.2159C264.485 72.2159 264.468 72.2463 264.452 72.2629C264.435 72.2795 264.405 72.2934 264.374 72.2934C264.233 72.3405 264.094 72.3709 263.953 72.418C264.017 72.526 264.078 72.6063 264.125 72.6977L264.094 72.7282C264.094 72.7282 263.939 72.634 263.859 72.5869C263.779 72.5399 263.671 72.5703 263.61 72.6506C263.563 72.7143 263.485 72.7919 263.438 72.7919C263.297 72.7614 263.172 72.7919 263.048 72.8555C262.846 72.9635 262.643 73.0909 262.438 73.1989V73.2294H262.641C262.641 73.2294 262.594 73.3235 262.577 73.3235C262.513 73.3235 262.436 73.3402 262.389 73.3235C262.311 73.2765 262.281 73.3069 262.217 73.3235C261.982 73.4952 261.749 73.6503 261.514 73.822C261.17 74.0879 260.827 74.3675 260.578 74.7275C260.53 74.7912 260.5 74.8522 260.47 74.9159C260.47 74.9325 260.453 74.9463 260.439 74.9795C260.375 75.1208 260.362 75.2592 260.456 75.4171C260.301 75.4171 260.254 75.4808 260.254 75.5888C260.254 75.73 260.317 75.8546 260.301 75.9931V76.1952C260.301 76.1952 260.301 76.3032 260.331 76.3503C260.362 76.4445 260.425 76.4583 260.503 76.414C260.55 76.3835 260.611 76.3365 260.658 76.306C260.86 76.414 260.611 76.4943 260.658 76.6023C260.688 76.6023 260.722 76.5719 260.766 76.5552L260.796 76.5857C260.719 76.6799 260.625 76.774 260.517 76.8986H260.362C260.439 77.3029 260.439 77.7266 260.58 78.0839C260.705 78.0202 260.782 77.9759 260.877 77.9288C260.971 77.8817 261.079 77.7875 261.156 77.9288C261.032 78.0368 261.203 78.0368 261.234 78.0839C261.217 78.0839 261.203 78.1143 261.17 78.1309C261.201 78.1475 261.248 78.1614 261.264 78.178C261.17 78.1946 261.062 78.2085 260.951 78.2417C260.888 78.2583 260.843 78.3359 260.78 78.3663C260.716 78.3968 260.638 78.4134 260.561 78.43C260.591 78.5712 260.686 78.6017 260.796 78.5851H261.032V78.6488C261.032 78.6488 260.907 78.6959 260.843 78.7125C260.719 78.7429 260.688 78.79 260.735 78.9146C260.782 79.0226 260.86 79.1168 260.924 79.2275C260.954 79.2912 260.987 79.3355 261.032 79.3992C261.062 79.4463 261.109 79.4934 261.14 79.5405C261.17 79.5709 261.203 79.6346 261.203 79.6817C261.234 79.7288 261.267 79.7897 261.311 79.8229C261.419 79.9171 261.53 79.9946 261.638 80.0888C261.826 80.23 261.998 80.338 262.17 80.4626C262.544 80.7423 263.419 81.2269 264.493 81.7586C265.399 82.1962 266.318 82.6005 267.24 83.0214C267.725 83.2235 268.176 83.4257 268.614 83.6445C268.802 83.7386 268.988 83.8328 269.176 83.9242C269.846 84.2675 270.455 84.5805 270.907 84.9543C270.923 84.9709 270.937 84.9848 270.97 85.0014L271.391 85.3282C271.718 85.5774 271.954 85.7795 272.001 85.9512V86.1229C272.001 86.2171 271.954 86.3251 271.893 86.4359C271.829 86.5605 271.738 86.6712 271.627 86.7959C271.516 86.9205 271.391 87.0312 271.236 87.1559H271.22C271.031 87.2971 270.846 87.4355 270.627 87.5297C270.55 87.5602 270.486 87.5934 270.408 87.6377H270.361C269.987 87.7928 269.58 87.9035 269.19 87.9174H268.534C267.91 87.8869 267.254 87.7762 266.598 87.6211C266.194 87.5435 265.786 87.4328 265.382 87.3082C265.022 87.2002 264.679 87.0728 264.352 86.9177C263.399 86.5272 262.699 85.9346 262.214 85.342C261.84 84.8906 261.558 84.3894 261.45 83.7663C261.45 83.6888 261.403 83.6112 261.372 83.5475C261.342 83.5005 261.278 83.4534 261.201 83.4229H261.076C261.076 83.4229 261.093 83.47 261.106 83.5005C261.043 83.5005 260.965 83.5005 260.965 83.47C260.949 83.4229 260.918 83.4063 260.902 83.3925H260.699C260.544 83.3925 260.386 83.4229 260.231 83.4395C260.201 83.4395 260.168 83.4562 260.137 83.47H260.107C260.107 83.47 260.043 83.5642 259.982 83.5337C259.952 83.5337 259.935 83.5642 259.905 83.5808C259.858 83.7995 259.75 84.0488 259.545 84.2205C259.545 84.2842 259.575 84.3755 259.545 84.4088C259.481 84.4725 259.356 84.4088 259.279 84.3008C259.138 84.3312 259.013 84.4254 258.905 84.5362C258.797 84.6774 258.764 84.8325 258.764 84.8795C258.686 84.9571 258.609 85.0208 258.562 85.0817C258.514 85.1592 258.498 85.2534 258.531 85.3614C258.639 85.8128 258.75 86.2808 258.891 86.7349V86.7654C258.985 87.0146 259.093 87.2639 259.218 87.4826C259.282 87.5906 259.359 87.718 259.437 87.826C259.608 87.6848 259.763 87.5602 259.921 87.4355C260.029 87.4992 260.14 87.5602 260.234 87.6239C260.157 87.6709 260.062 87.7014 259.985 87.7651C259.938 87.7955 259.907 87.8897 259.86 87.9202C259.672 88.0614 259.642 88.0919 259.766 88.294C259.921 88.5599 260.079 88.8257 260.265 89.0583C260.544 89.4183 260.857 89.7755 261.201 90.0719C261.201 90.0719 261.217 90.0719 261.231 90.0885C261.245 90.1051 261.278 90.1189 261.295 90.1522C261.325 90.1688 261.342 90.1992 261.372 90.2159C261.466 90.2934 261.561 90.3571 261.652 90.418C261.887 90.5592 262.103 90.6672 262.198 90.7448C262.228 90.7614 262.245 90.7919 262.275 90.8223C262.383 90.886 262.494 90.9469 262.602 91.0106H262.726C262.821 91.0577 262.915 91.1048 263.006 91.1519C263.926 91.5562 264.895 91.8552 265.878 92.0242C266.238 92.0879 266.581 92.1183 266.908 92.1488C267.938 92.2125 268.935 92.1183 269.918 91.8054C270.137 91.7279 270.403 91.6337 270.605 91.5395C270.699 91.5395 270.746 91.5395 270.84 91.4925C270.84 91.4925 270.84 91.3208 270.871 91.3208C270.934 91.3208 271.012 91.3042 271.059 91.3374C271.123 91.3845 271.184 91.3845 271.247 91.3374C271.342 91.2737 271.513 91.2599 271.402 91.0411C271.497 91.1352 271.574 91.1657 271.638 91.1352C271.654 91.1352 271.668 91.1186 271.685 91.1186C271.702 91.1186 271.732 91.0882 271.749 91.0549C271.685 91.0549 271.577 91.0715 271.53 91.0383C271.452 90.9442 271.375 90.9608 271.264 91.0079C271.264 90.9442 271.264 90.8528 271.294 90.8528C271.45 90.8057 271.621 90.7752 271.746 90.8999C271.87 91.0079 271.948 90.994 272.059 90.8999C272.042 90.8694 272.012 90.8362 271.995 90.7919C272.042 90.7614 272.089 90.7448 272.12 90.7282C272.214 90.6977 272.291 90.6645 272.386 90.6506C272.463 90.6506 272.682 90.5426 272.712 90.4789C272.729 90.4485 272.759 90.4014 272.79 90.3848C272.884 90.3377 272.978 90.2906 273.07 90.2297C273.241 90.1051 273.396 89.9805 273.49 89.9029C273.615 89.7783 273.74 89.6537 273.85 89.5125C273.881 89.4654 273.914 89.4349 273.945 89.4045V89.374C273.928 89.266 273.898 89.1552 273.867 89.0306C273.945 89.0472 274.008 89.0777 274.069 89.0943C274.069 89.0472 274.069 89.0168 274.039 88.9697C274.133 89.0002 274.194 88.9697 274.227 88.9226C274.274 88.8589 274.305 88.7814 274.335 88.7039C274.366 88.6097 274.399 88.5155 274.429 88.4242C274.429 88.3771 274.446 88.33 274.46 88.3162C274.507 88.1279 274.601 87.9423 274.648 87.7706C274.742 87.4439 274.789 87.1005 274.803 86.7571C274.803 86.4303 274.803 86.1174 274.786 85.8045C274.77 85.5386 274.739 85.3365 274.709 85.2119C274.709 85.1039 274.678 84.946 274.662 84.7605C274.598 84.3562 274.554 83.9325 274.443 83.5448C274.349 83.2319 274.224 82.9355 274.083 82.6559C273.881 82.2959 273.646 81.9525 273.366 81.6423C273.13 81.3765 272.867 81.1439 272.585 80.9085C271.713 80.1746 270.713 79.6291 269.683 79.1777C268.511 78.6792 267.326 78.2112 266.158 77.7266C266.094 77.6962 266.016 77.6629 265.955 77.6491C265.878 77.6186 265.814 77.602 265.784 77.5854C265.629 77.5217 265.332 77.3832 265.127 77.3057C265.097 77.2891 265.064 77.2586 265.033 77.242C264.878 77.1479 264.72 77.0537 264.565 76.9457C264.565 76.9457 264.549 76.9457 264.535 76.9291C264.518 76.9291 264.504 76.9125 264.471 76.8986C264.407 76.8682 264.346 76.8349 264.33 76.7906V76.7602C264.33 76.7602 264.438 76.6355 264.518 76.5885C264.626 76.4943 264.754 76.4334 264.892 76.3863C264.909 76.3863 264.922 76.3863 264.939 76.3697C264.986 76.3531 265.047 76.3226 265.094 76.306C265.202 76.2589 265.33 76.2285 265.454 76.2119C265.734 76.1177 266.03 76.0402 266.313 75.9765C266.36 75.9599 266.407 75.946 266.421 75.946C266.592 75.9155 266.781 75.8989 266.983 75.8685C267.872 75.7439 268.761 75.7272 269.65 75.8214C270.569 75.9294 271.444 76.1648 272.269 76.5691H272.3C272.3 76.5691 272.33 76.5857 272.347 76.5995C272.363 76.5995 272.394 76.63 272.424 76.63C272.471 76.6466 272.518 76.6605 272.566 76.6466C272.566 76.6466 272.674 76.5995 272.721 76.5829C272.784 76.5663 272.845 76.5829 272.876 76.5829C272.906 76.5829 272.923 76.5663 272.953 76.5525C273.172 76.4888 273.374 76.4583 273.576 76.5525C273.623 76.5691 273.654 76.5829 273.67 76.5829C273.701 76.5829 273.734 76.5995 273.765 76.6134H273.795C273.967 76.6605 274.138 76.6909 274.327 76.738C274.357 76.738 274.374 76.738 274.404 76.7685H274.435C274.543 76.7989 274.59 76.8931 274.637 77.0039C274.667 77.0509 274.684 77.1119 274.731 77.1589C274.778 77.2226 274.839 77.2835 274.903 77.3306C274.98 77.3777 275.074 77.4248 275.152 77.4386C275.199 77.4386 275.246 77.4552 275.307 77.4552C275.368 77.4552 275.479 77.3915 275.509 77.3306C275.509 77.3306 275.509 77.1755 275.526 77.1589C275.556 77.1285 275.573 77.0814 275.59 77.0343V77.0039V76.8792H275.731L275.758 76.8709ZM274.853 74.6389C274.853 74.6389 274.961 74.5614 275.025 74.5143C275.025 74.6555 275.041 74.7497 275.055 74.8577C274.93 74.794 274.836 74.7331 274.853 74.6223V74.6389ZM263.291 73.3595C263.291 73.3595 263.446 73.3125 263.527 73.282C263.543 73.3291 263.59 73.39 263.463 73.4066C263.416 73.4066 263.369 73.4537 263.308 73.4703C263.278 73.4703 263.244 73.4399 263.23 73.4232C263.247 73.4066 263.261 73.3762 263.294 73.3762V73.3595H263.291ZM263.291 74.5143C263.136 74.5143 263.12 74.4063 263.089 74.2955C263.261 74.2651 263.386 74.2955 263.463 74.4368C263.399 74.4368 263.338 74.4063 263.275 74.3897C263.275 74.4368 263.291 74.4839 263.305 74.5143H263.291ZM262.901 74.2014C262.995 74.0768 263.114 74.0602 263.261 74.1543H263.059L263.089 74.1848C262.981 74.2928 262.887 74.4202 262.776 74.5448C262.746 74.4977 262.729 74.4506 262.713 74.4368C262.776 74.3592 262.854 74.2817 262.901 74.2014ZM262.682 74.4672C262.682 74.4672 262.635 74.5752 262.635 74.6085H262.355C262.355 74.6085 262.278 74.578 262.247 74.5614V74.4977C262.247 74.4977 262.389 74.4811 262.45 74.4672H262.682ZM262.308 73.9217C262.308 73.9217 262.45 73.9217 262.402 74.0297C262.45 74.1239 262.402 74.1848 262.308 74.1709C262.261 74.1709 262.214 74.0934 262.167 74.0463C262.214 73.9992 262.245 73.9383 262.308 73.9051V73.9217ZM260.749 75.6857C260.749 75.5445 260.766 75.4669 260.78 75.3589C260.843 75.3589 260.921 75.3589 261.029 75.3285C260.935 75.5002 261.137 75.5168 261.17 75.6414C261.029 75.5002 260.89 75.5334 260.749 75.6885V75.6857ZM261.342 77.9011C261.234 77.8845 261.123 77.8706 261.015 77.8374V77.7432C261.015 77.7432 260.827 77.7128 260.78 77.6491C260.686 77.5411 260.904 77.5549 260.874 77.4303C260.81 77.3832 260.749 77.3057 260.655 77.2282C260.702 77.2115 260.733 77.1811 260.749 77.1977C260.857 77.2282 260.985 77.2752 261.093 77.3223C261.17 77.3694 261.234 77.4303 261.311 77.494C261.234 77.5882 261.109 77.3528 261.046 77.5411H261.201C261.201 77.5411 261.201 77.6491 261.17 77.6962C261.14 77.7903 261.17 77.8374 261.264 77.8208C261.295 77.8208 261.328 77.8208 261.358 77.8374V77.8845L261.342 77.9011ZM261.608 76.918C261.483 76.9485 261.436 76.918 261.436 76.7463C261.389 76.7159 261.342 76.6826 261.295 76.6522V76.6051C261.403 76.6051 261.514 76.6355 261.608 76.6522V76.9014V76.918ZM261.248 75.7328C261.278 75.6386 261.311 75.5915 261.342 75.5306C261.372 75.5611 261.419 75.5943 261.436 75.6248C261.436 75.6414 261.436 75.7023 261.406 75.7189C261.375 75.7355 261.328 75.7189 261.25 75.7355L261.248 75.7328ZM261.527 76.0291C261.699 75.9654 261.887 75.9211 262.073 75.8574C262.103 75.9045 262.137 75.9654 262.167 76.0125C261.948 76.0429 261.73 76.1675 261.527 76.0125V76.0291ZM262.275 76.1703V76.0152C262.369 76.0623 262.43 76.0789 262.494 76.1094V76.1565C262.494 76.1565 262.353 76.1537 262.275 76.1703ZM262.369 75.8103V75.8574C262.275 75.8408 262.167 75.8103 262.073 75.7937C262.073 75.622 261.965 75.5279 261.793 75.5749C261.746 75.5915 261.685 75.5749 261.622 75.5749C261.558 75.5749 261.514 75.5583 261.45 75.5445C261.45 75.514 261.356 75.4199 261.214 75.3257C261.292 75.2952 261.356 75.2786 261.417 75.2482C261.417 75.2786 261.417 75.3119 261.433 75.3562H261.682C261.682 75.3562 261.666 75.4808 261.652 75.5279L261.682 75.5583C261.682 75.5583 261.807 75.4337 261.885 75.37C261.915 75.4005 261.932 75.4337 261.948 75.4475C262.042 75.4475 262.12 75.4475 262.198 75.4171C262.261 75.4005 262.322 75.3395 262.386 75.3229C262.527 75.2759 262.621 75.37 262.729 75.478C262.463 75.478 262.494 75.7134 262.355 75.8214H262.372V75.8048L262.369 75.8103ZM262.433 74.9214C262.51 74.7663 262.527 74.7663 262.729 74.9214C262.776 74.8909 262.823 74.8743 262.87 74.8439C262.762 75.1235 262.652 75.1568 262.433 74.938V74.9214ZM263.541 75.514C263.541 75.514 263.463 75.5777 263.446 75.622C263.416 75.73 263.369 75.7466 263.291 75.7162C263.214 75.7799 263.167 75.8103 263.103 75.8408L263.073 75.8103C263.073 75.8103 263.073 75.7466 263.089 75.7023H262.87V75.6719C262.965 75.6248 263.059 75.5639 263.167 75.5168C263.167 75.5168 263.183 75.5472 263.197 75.5472C263.228 75.4392 263.244 75.3285 263.275 75.2205C263.352 75.2205 263.43 75.2205 263.494 75.2509C263.541 75.2509 263.588 75.3146 263.602 75.3451C263.602 75.3922 263.554 75.4392 263.538 75.4863V75.5168L263.541 75.514ZM263.712 75.2343C263.618 75.2343 263.541 75.2039 263.446 75.1872V75.1235C263.541 75.1235 263.618 75.1402 263.712 75.154V75.2343ZM259.858 88.2303C259.982 88.1666 260.107 88.1223 260.248 88.0586C260.218 88.2137 260.013 88.294 259.858 88.2303ZM260.107 84.19C260.107 84.19 260.248 84.1595 260.342 84.1263C260.265 84.3146 260.201 84.4697 260.14 84.6109H260.076C260.076 84.4697 260.076 84.3312 260.107 84.19ZM260.09 84.8297C260.09 84.8297 260.245 84.7992 260.339 84.7992C260.339 84.9709 260.245 85.0485 260.074 84.9875C260.043 84.9875 260.01 84.9239 259.979 84.91C260.01 84.8934 260.043 84.8463 260.087 84.8463L260.09 84.8297ZM260.026 84.5639C260.026 84.7051 259.791 84.8297 259.683 84.766C259.747 84.5943 259.932 84.6719 260.026 84.5639ZM259.902 86.6242C259.902 86.6242 259.777 86.5605 259.7 86.53C259.794 86.4995 259.871 86.4525 259.935 86.4663C259.999 86.4663 260.043 86.5605 260.123 86.638C260.029 86.6851 259.982 86.7155 259.905 86.638V86.6214L259.902 86.6242ZM260.198 85.6411H260.09C260.09 85.6411 260.09 85.6715 260.074 85.6882C260.121 85.7186 260.168 85.7519 260.215 85.7823C260.137 85.846 260.043 85.9374 259.949 85.9706C259.855 86.0039 259.714 86.0011 259.558 86.0177C259.622 85.9872 259.636 85.9706 259.666 85.954C259.808 85.9235 259.902 85.8294 259.979 85.7352C260.01 85.7048 260.026 85.6272 260.01 85.5802C260.01 85.5497 259.932 85.5331 259.885 85.5331C259.838 85.5331 259.791 85.5635 259.761 85.5635C259.636 85.6106 259.511 85.6411 259.37 85.6882C259.354 85.6882 259.306 85.6577 259.306 85.6577C259.306 85.6272 259.306 85.5635 259.337 85.5497C259.384 85.5192 259.445 85.5026 259.525 85.486C259.542 85.5331 259.556 85.5802 259.572 85.6106C259.697 85.4223 259.963 85.4223 260.071 85.2839C260.195 85.1288 260.32 85.1897 260.445 85.1759H260.475V85.2063C260.367 85.2839 260.35 85.4085 260.35 85.5497C260.35 85.5802 260.256 85.6272 260.209 85.6439H260.193L260.198 85.6411ZM260.386 85.8599C260.386 85.8599 260.37 85.7962 260.356 85.7657L260.544 85.7186C260.544 85.7186 260.544 85.7657 260.561 85.7823C260.497 85.8128 260.436 85.8294 260.373 85.8599H260.386ZM260.589 84.3783C260.589 84.3783 260.464 84.3949 260.417 84.4088C260.386 84.3617 260.353 84.3146 260.323 84.2675C260.353 84.2039 260.478 84.19 260.447 84.0792C260.478 84.0792 260.525 84.0626 260.555 84.0792L260.727 84.2509H260.508C260.508 84.2509 260.555 84.3146 260.586 84.3589V84.3755L260.589 84.3783ZM261.259 85.0014C261.259 85.0014 261.242 85.0789 261.259 85.1094C261.289 85.234 261.228 85.234 261.165 85.2174C261.134 85.2811 261.101 85.3254 261.057 85.3586C261.057 85.3586 260.993 85.3115 260.932 85.2811C260.902 85.2977 260.838 85.3282 260.777 85.3586L260.746 85.3282C260.746 85.3282 260.888 85.1869 260.982 85.0789C260.982 85.0485 260.951 84.9709 260.935 84.8906C260.998 84.8602 261.043 84.8269 261.106 84.8269C261.17 84.8269 261.231 84.8269 261.295 84.8574C261.311 84.8574 261.295 84.9654 261.278 85.0125H261.262V84.9959L261.259 85.0014ZM274.147 87.8869C274.147 87.8869 274.255 87.8703 274.318 87.8565C274.349 87.8565 274.396 87.8094 274.46 87.7928C274.46 87.8399 274.49 87.8703 274.507 87.9174H274.726C274.631 87.9811 274.57 88.0254 274.507 88.0725C274.46 88.0725 274.413 88.042 274.366 88.0254C274.288 88.1195 274.366 88.2912 274.21 88.3217C274.069 88.3522 273.961 88.258 273.914 88.1334C274.008 88.0697 274.133 88.0254 274.15 87.8842L274.147 87.8869ZM273.834 88.2912L274.069 88.3854V88.4159C273.975 88.4159 273.881 88.4159 273.834 88.3383C273.834 88.3217 273.834 88.3079 273.85 88.2912H273.834ZM272.15 90.3986L272.197 90.4291C272.197 90.4291 272.15 90.5232 272.134 90.5232C272.086 90.5232 272.026 90.5232 271.978 90.4928V90.4457C271.978 90.4457 272.086 90.4457 272.134 90.4623C272.134 90.4457 272.134 90.4152 272.164 90.3848H272.147V90.4014L272.15 90.3986ZM264.302 73.0355C264.302 73.0355 264.161 73.066 264.13 73.0355C264.1 73.0189 264.083 72.9275 264.067 72.8805C264.067 72.8805 264.097 72.8805 264.114 72.8639C264.13 72.8943 264.144 72.9275 264.178 72.9719C264.272 72.9082 264.366 72.8472 264.474 72.7697V72.8943C264.474 72.8943 264.349 73.0023 264.286 73.0355H264.302ZM264.834 72.6755V72.7392C264.834 72.7392 264.77 72.6451 264.74 72.598C264.74 72.5814 264.709 72.5509 264.709 72.5343C264.709 72.4706 264.898 72.3322 264.958 72.3626C265.036 72.3931 265.1 72.4402 265.208 72.4872C265.066 72.5509 264.958 72.6119 264.848 72.6755H264.831H264.834ZM265.114 72.9248C265.114 72.9248 265.144 72.8306 265.161 72.8168C265.224 72.7863 265.302 72.7531 265.349 72.8472C265.271 72.8639 265.208 72.8777 265.114 72.9109V72.9248ZM265.316 72.2546C265.44 72.2242 265.534 72.0663 265.69 72.238C265.706 72.2685 265.814 72.2214 265.892 72.2075C265.892 72.2242 265.922 72.2712 265.939 72.3155C265.703 72.4872 265.424 72.4568 265.316 72.2685V72.2546ZM274.598 73.3457C274.534 73.4399 274.49 73.534 274.349 73.534C274.396 73.4094 274.457 73.3319 274.598 73.3457ZM274.13 74.6888C274.224 74.6251 274.318 74.4866 274.457 74.6417C274.379 74.7054 274.302 74.7663 274.222 74.83C274.191 74.7829 274.174 74.7359 274.144 74.6888H274.127H274.13ZM274.349 75.9986C274.349 75.9986 274.318 75.9515 274.332 75.9349C274.332 75.9183 274.363 75.8712 274.379 75.8712C274.474 75.8712 274.568 75.9017 274.659 75.9183C274.612 75.9959 274.41 76.0429 274.346 75.982L274.349 75.9986ZM275.393 76.3115C275.393 76.3115 275.376 76.3586 275.362 76.3586C275.238 76.3891 275.127 76.4223 274.972 76.4528C275.002 76.3891 275.036 76.3448 275.05 76.2977C274.986 76.2977 274.942 76.2977 274.894 76.3143V76.126C274.894 76.126 274.972 76.0955 275.019 76.0623C275.05 76.0928 275.083 76.126 275.113 76.1399C275.144 76.1094 275.16 76.0623 275.207 75.9986H275.332V76.1066C275.332 76.1066 275.41 76.0762 275.457 76.0429C275.426 76.1371 275.393 76.2146 275.379 76.2922H275.396V76.3088L275.393 76.3115Z" fill="#DBEDF8"></path>
    <g filter="url(#filter4_d_388_2995)">
      <path d="M386.231 141H319.769C318.24 141 317 142.24 317 143.769V210.231C317 211.76 318.24 213 319.769 213H386.231C387.76 213 389 211.76 389 210.231V143.769C389 142.24 387.76 141 386.231 141Z" fill="#DBEDF8"></path>
    </g>
    <path d="M377.851 158.809C377.851 155.187 374.915 152.249 371.29 152.249C367.984 152.249 365.248 154.697 364.799 157.881L364.733 157.845C359.369 155.425 354.849 159.712 354.849 159.712L342.897 171.722L347.619 176.269L357.239 166.817C361.731 162.326 364.176 165.366 364.176 165.366C367.557 168.224 364.293 171.605 364.293 171.605L369.13 176.269C373.082 172.001 373.312 168.277 372.11 165.314C375.345 164.909 377.851 162.151 377.851 158.809ZM372.171 188.974C372.193 188.933 372.207 188.908 372.207 188.908C374.627 183.544 370.341 179.024 370.341 179.024L358.33 167.072L353.783 171.794L363.235 181.414C367.726 185.906 364.686 188.354 364.686 188.354C361.828 191.735 358.447 188.47 358.447 188.47L353.783 193.308C358.051 197.26 361.775 197.489 364.738 196.288C365.143 199.522 367.901 202.025 371.243 202.025C374.865 202.025 377.801 199.09 377.801 195.465C377.801 192.159 375.353 189.423 372.168 188.971M358.43 177.784L348.81 187.235C344.318 191.727 341.873 188.686 341.873 188.686C338.492 185.828 341.757 182.447 341.757 182.447L336.919 177.784C332.967 182.051 332.737 185.776 333.939 188.739C330.705 189.143 328.201 191.901 328.201 195.244C328.201 198.866 331.137 201.801 334.761 201.801C338.068 201.801 340.804 199.353 341.253 196.169C341.294 196.191 341.319 196.205 341.319 196.205C346.683 198.625 351.202 194.338 351.202 194.338L363.154 182.328L358.433 177.781M342.817 172.636C338.325 168.144 341.366 165.696 341.366 165.696C344.224 162.315 347.605 165.58 347.605 165.58L352.269 160.742C348.001 156.79 344.277 156.56 341.313 157.762C340.909 154.528 338.151 152.024 334.809 152.024C331.186 152.024 328.251 154.96 328.251 158.585C328.251 161.891 330.699 164.627 333.884 165.078C333.861 165.12 333.848 165.145 333.848 165.145C331.427 170.509 335.714 175.028 335.714 175.028L347.724 186.98L352.271 182.259L342.82 172.638" fill="#1474C4"></path>
    <g filter="url(#filter5_d_388_2995)">
      <path d="M298.231 229H231.769C230.24 229 229 230.24 229 231.769V298.231C229 299.76 230.24 301 231.769 301H298.231C299.76 301 301 299.76 301 298.231V231.769C301 230.24 299.76 229 298.231 229Z" fill="#DBEDF8"></path>
    </g>
    <path d="M259.902 245.242C259.902 242.531 260.542 241.631 261.447 240.847C253.696 241.752 244.4 244.596 241.426 248.213C240.786 249.119 240.396 250.534 240.396 252.347C240.396 263.84 252.666 289.923 261.317 289.923C265.319 289.923 272.07 283.343 277.625 274.427C276.886 274.645 276.299 274.728 275.523 274.728C269.193 274.723 259.902 252.602 259.902 245.242ZM273.588 240.077C270.231 240.077 268.938 240.722 268.938 244.079C268.938 251.439 275.523 266.166 280.824 266.166C283.789 266.166 289.605 255.059 289.605 245.884C289.605 241.365 281.593 240.077 273.588 240.077Z" fill="#1474C4"></path>
    <path d="M142.66 244.31L181 258L201 238L215.94 252.94L197.13 279.38C193.5 284.48 186.93 286.55 181.03 284.45L180.98 284.43L187.99 315.99H139.99L118.04 272.08C109.98 255.96 125.68 238.24 142.66 244.3V244.31Z" fill="#95CAEB"></path>
    <path d="M201 238L211 228C210.38 224.27 211.73 220.48 214.58 217.99L232.32 202.47C233.3 201.61 234.75 201.56 235.8 202.34C237.02 203.26 237.27 204.99 236.35 206.21L229.01 216L232.62 218.01C235.82 219.79 237.46 223.45 236.67 227.02C236.24 228.94 235.14 230.65 233.56 231.84L228 236.01L215.94 252.95L201 238.01V238Z" fill="#FFD176"></path>
    <path d="M179.51 283.91L155.8 275.49" stroke="#001B41" stroke-linecap="round"></path>
    <path d="M150.27 203.87C150.65 203.75 150.99 203.56 151.28 203.27C151.74 202.81 152 202.18 152 201.52C152 201.06 151.87 200.61 151.63 200.22C151.39 199.83 151.04 199.51 150.63 199.31L144 195.99L138 189.99H124V229.99H133.61C138.49 229.99 143.16 228.05 146.61 224.61C150.06 221.16 151.99 216.49 151.99 211.61C151.99 209.2 151.51 206.8 150.59 204.57C150.49 204.33 150.37 204.1 150.26 203.86L150.27 203.87Z" fill="#FFD176"></path>
    <path d="M116 224C114.53 224 113.12 223.19 112.42 221.79C111.43 219.81 112.23 217.41 114.21 216.42L134.21 206.42C136.19 205.43 138.59 206.23 139.58 208.21C140.57 210.19 139.77 212.59 137.79 213.58L117.79 223.58C117.22 223.87 116.6 224 116 224Z" fill="#FFAA00"></path>
    <path d="M128 184C124.32 184 120.68 184.72 117.28 186.13C113.88 187.54 110.8 189.6 108.2 192.2C107.06 193.34 106.03 194.58 105.11 195.89C103.54 192.42 100.06 190 96 190C90.48 190 86 194.48 86 200C86 205.52 90.48 210 96 210C97.48 210 98.89 209.67 100.16 209.09C100.06 210.06 100 211.03 100 212C100 219.43 102.95 226.55 108.2 231.8C113.45 237.05 120.57 240 128 240V200L142.41 187.99C138.06 185.37 133.08 183.99 128 184Z" fill="#001B41"></path>
  </g>
  <defs>
    <filter id="filter0_d_388_2995" x="47" y="-7" width="388" height="282" filterUnits="userSpaceOnUse" color-interpolation-filters="sRGB">
      <feFlood flood-opacity="0" result="BackgroundImageFix"></feFlood>
      <feColorMatrix in="SourceAlpha" type="matrix" values="0 0 0 0 0 0 0 0 0 0 0 0 0 0 0 0 0 0 127 0" result="hardAlpha"></feColorMatrix>
      <feOffset dy="5"></feOffset>
      <feGaussianBlur stdDeviation="10"></feGaussianBlur>
      <feColorMatrix type="matrix" values="0 0 0 0 0.00784314 0 0 0 0 0.0627451 0 0 0 0 0.168627 0 0 0 0.15 0"></feColorMatrix>
      <feBlend mode="normal" in2="BackgroundImageFix" result="effect1_dropShadow_388_2995"></feBlend>
      <feBlend mode="normal" in="SourceGraphic" in2="effect1_dropShadow_388_2995" result="shape"></feBlend>
    </filter>
    <filter id="filter1_d_388_2995" x="214" y="131" width="102" height="102" filterUnits="userSpaceOnUse" color-interpolation-filters="sRGB">
      <feFlood flood-opacity="0" result="BackgroundImageFix"></feFlood>
      <feColorMatrix in="SourceAlpha" type="matrix" values="0 0 0 0 0 0 0 0 0 0 0 0 0 0 0 0 0 0 127 0" result="hardAlpha"></feColorMatrix>
      <feOffset dy="5"></feOffset>
      <feGaussianBlur stdDeviation="7.5"></feGaussianBlur>
      <feComposite in2="hardAlpha" operator="out"></feComposite>
      <feColorMatrix type="matrix" values="0 0 0 0 0 0 0 0 0 0.105882 0 0 0 0 0.254902 0 0 0 0.15 0"></feColorMatrix>
      <feBlend mode="normal" in2="BackgroundImageFix" result="effect1_dropShadow_388_2995"></feBlend>
      <feBlend mode="normal" in="SourceGraphic" in2="effect1_dropShadow_388_2995" result="shape"></feBlend>
    </filter>
    <filter id="filter2_d_388_2995" x="126" y="43" width="102" height="102" filterUnits="userSpaceOnUse" color-interpolation-filters="sRGB">
      <feFlood flood-opacity="0" result="BackgroundImageFix"></feFlood>
      <feColorMatrix in="SourceAlpha" type="matrix" values="0 0 0 0 0 0 0 0 0 0 0 0 0 0 0 0 0 0 127 0" result="hardAlpha"></feColorMatrix>
      <feOffset dy="5"></feOffset>
      <feGaussianBlur stdDeviation="7.5"></feGaussianBlur>
      <feComposite in2="hardAlpha" operator="out"></feComposite>
      <feColorMatrix type="matrix" values="0 0 0 0 0 0 0 0 0 0.105882 0 0 0 0 0.254902 0 0 0 0.15 0"></feColorMatrix>
      <feBlend mode="normal" in2="BackgroundImageFix" result="effect1_dropShadow_388_2995"></feBlend>
      <feBlend mode="normal" in="SourceGraphic" in2="effect1_dropShadow_388_2995" result="shape"></feBlend>
    </filter>
    <filter id="filter3_d_388_2995" x="214" y="43" width="102" height="102" filterUnits="userSpaceOnUse" color-interpolation-filters="sRGB">
      <feFlood flood-opacity="0" result="BackgroundImageFix"></feFlood>
      <feColorMatrix in="SourceAlpha" type="matrix" values="0 0 0 0 0 0 0 0 0 0 0 0 0 0 0 0 0 0 127 0" result="hardAlpha"></feColorMatrix>
      <feOffset dy="5"></feOffset>
      <feGaussianBlur stdDeviation="7.5"></feGaussianBlur>
      <feComposite in2="hardAlpha" operator="out"></feComposite>
      <feColorMatrix type="matrix" values="0 0 0 0 0 0 0 0 0 0.105882 0 0 0 0 0.254902 0 0 0 0.15 0"></feColorMatrix>
      <feBlend mode="normal" in2="BackgroundImageFix" result="effect1_dropShadow_388_2995"></feBlend>
      <feBlend mode="normal" in="SourceGraphic" in2="effect1_dropShadow_388_2995" result="shape"></feBlend>
    </filter>
    <filter id="filter4_d_388_2995" x="302" y="131" width="102" height="102" filterUnits="userSpaceOnUse" color-interpolation-filters="sRGB">
      <feFlood flood-opacity="0" result="BackgroundImageFix"></feFlood>
      <feColorMatrix in="SourceAlpha" type="matrix" values="0 0 0 0 0 0 0 0 0 0 0 0 0 0 0 0 0 0 127 0" result="hardAlpha"></feColorMatrix>
      <feOffset dy="5"></feOffset>
      <feGaussianBlur stdDeviation="7.5"></feGaussianBlur>
      <feComposite in2="hardAlpha" operator="out"></feComposite>
      <feColorMatrix type="matrix" values="0 0 0 0 0 0 0 0 0 0.105882 0 0 0 0 0.254902 0 0 0 0.15 0"></feColorMatrix>
      <feBlend mode="normal" in2="BackgroundImageFix" result="effect1_dropShadow_388_2995"></feBlend>
      <feBlend mode="normal" in="SourceGraphic" in2="effect1_dropShadow_388_2995" result="shape"></feBlend>
    </filter>
    <filter id="filter5_d_388_2995" x="214" y="219" width="102" height="102" filterUnits="userSpaceOnUse" color-interpolation-filters="sRGB">
      <feFlood flood-opacity="0" result="BackgroundImageFix"></feFlood>
      <feColorMatrix in="SourceAlpha" type="matrix" values="0 0 0 0 0 0 0 0 0 0 0 0 0 0 0 0 0 0 127 0" result="hardAlpha"></feColorMatrix>
      <feOffset dy="5"></feOffset>
      <feGaussianBlur stdDeviation="7.5"></feGaussianBlur>
      <feComposite in2="hardAlpha" operator="out"></feComposite>
      <feColorMatrix type="matrix" values="0 0 0 0 0 0 0 0 0 0.105882 0 0 0 0 0.254902 0 0 0 0.15 0"></feColorMatrix>
      <feBlend mode="normal" in2="BackgroundImageFix" result="effect1_dropShadow_388_2995"></feBlend>
      <feBlend mode="normal" in="SourceGraphic" in2="effect1_dropShadow_388_2995" result="shape"></feBlend>
    </filter>
    <clipPath id="clip0_388_2995">
      <rect width="480" height="324" fill="white"></rect>
    </clipPath>
  </defs>
</svg>
