<?xml version="1.0" encoding="UTF-8" standalone="no"?>
<svg xmlns="http://www.w3.org/2000/svg" id="Ebene_1" viewBox="0 0 423 423" opacity="1" style="background: rgba(244,247,250,0.00);">
  <title>Deploy Now</title>
  <desc>framework automation</desc>
  <style>
@keyframes head_t { 0% { transform: translate(30.472025px,217.710339px) rotate(0deg) translate(-21.736397px,-22.6723px); } 28.2763% { transform: translate(30.472025px,217.710339px) rotate(0deg) translate(-21.736397px,-22.6723px); animation-timing-function: cubic-bezier(0.42,0,1,1); } 44.2586% { transform: translate(30.472025px,217.710339px) rotate(-6deg) translate(-21.736397px,-22.6723px); animation-timing-function: cubic-bezier(0,0,0.58,1); } 52.8645% { transform: translate(30.472025px,217.710339px) rotate(0deg) translate(-21.736397px,-22.6723px); animation-timing-function: cubic-bezier(0.42,0,1,1); } 68.8468% { transform: translate(30.472025px,217.710339px) rotate(-6deg) translate(-21.736397px,-22.6723px); animation-timing-function: cubic-bezier(0,0,0.58,1); } 77.8706% { transform: translate(30.472025px,217.710339px) rotate(0deg) translate(-21.736397px,-22.6723px); } 91.3941% { transform: translate(30.472025px,217.710339px) rotate(-6deg) translate(-21.736397px,-22.6723px); animation-timing-function: cubic-bezier(0,0,0.58,1); } 100% { transform: translate(30.472025px,217.710339px) rotate(0deg) translate(-21.736397px,-22.6723px); } }
@keyframes dotted_line_do { 0% { stroke-dashoffset: 2px; } 24.6865% { stroke-dashoffset: 10px; } 25.0061% { stroke-dashoffset: 2px; } 49.791% { stroke-dashoffset: 10px; } 49.9877% { stroke-dashoffset: 2px; } 74.8709% { stroke-dashoffset: 10px; } 74.9939% { stroke-dashoffset: 2px; } 100% { stroke-dashoffset: 10px; } }
@keyframes cursor_t { 0% { transform: translate(327.85px,266.4px) scale(1,1) translate(-327.85px,-266.4px); } 11.4826% { transform: translate(327.85px,266.4px) scale(1,1) translate(-327.85px,-266.4px); } 13.5234% { transform: translate(327.85px,266.4px) scale(0.8,0.8) translate(-327.85px,-266.4px); } 22.1293% { transform: translate(327.85px,266.4px) scale(1,1) translate(-327.85px,-266.4px); } 27.0469% { transform: translate(327.85px,266.4px) scale(0.8,0.8) translate(-327.85px,-266.4px); } 36.4642% { transform: translate(327.85px,266.4px) scale(1,1) translate(-327.85px,-266.4px); } 100% { transform: translate(327.85px,266.4px) scale(1,1) translate(-327.85px,-266.4px); } }
@keyframes gear-big_t { 0% { transform: translate(138.3px,198.8px) rotate(360deg) translate(-138.3px,-198.8px); } 0.5409% { transform: translate(138.3px,198.8px) rotate(360deg) translate(-138.3px,-198.8px); } 100% { transform: translate(138.3px,198.8px) rotate(0deg) translate(-138.3px,-198.8px); } }
@keyframes gear-small_t { 0% { transform: translate(114.817px,187.129px) rotate(0deg) translate(-10.95px,-10.95px); } 100% { transform: translate(114.817px,187.129px) rotate(360deg) translate(-10.95px,-10.95px); } }
    </style>
  <defs>
    <filter id="drop-shadow-1" filterUnits="userSpaceOnUse">
      <feOffset dx="1" dy="1"></feOffset>
      <feGaussianBlur result="blur" stdDeviation="10"></feGaussianBlur>
      <feFlood flood-color="#000" flood-opacity="0"></feFlood>
      <feComposite in2="blur" operator="in"></feComposite>
      <feComposite in="SourceGraphic"></feComposite>
    </filter>
    <filter id="drop-shadow-2" filterUnits="userSpaceOnUse">
      <feOffset dx="1" dy="1"></feOffset>
      <feGaussianBlur result="blur-2" stdDeviation="10"></feGaussianBlur>
      <feFlood flood-color="#000" flood-opacity="0"></feFlood>
      <feComposite in2="blur-2" operator="in"></feComposite>
      <feComposite in="SourceGraphic"></feComposite>
    </filter>
    <filter id="drop-shadow-3" filterUnits="userSpaceOnUse">
      <feOffset dx="1" dy="1"></feOffset>
      <feGaussianBlur result="blur-3" stdDeviation="10"></feGaussianBlur>
      <feFlood flood-color="#000" flood-opacity="0"></feFlood>
      <feComposite in2="blur-3" operator="in"></feComposite>
      <feComposite in="SourceGraphic"></feComposite>
    </filter>
    <filter id="drop-shadow-4" filterUnits="userSpaceOnUse">
      <feOffset dx="1" dy="1"></feOffset>
      <feGaussianBlur result="blur-4" stdDeviation="10"></feGaussianBlur>
      <feFlood flood-color="#000" flood-opacity="0"></feFlood>
      <feComposite in2="blur-4" operator="in"></feComposite>
      <feComposite in="SourceGraphic"></feComposite>
    </filter>
    <filter id="drop-shadow-5" filterUnits="userSpaceOnUse">
      <feOffset dx="1" dy="1"></feOffset>
      <feGaussianBlur result="blur-5" stdDeviation="10"></feGaussianBlur>
      <feFlood flood-color="#000" flood-opacity="0"></feFlood>
      <feComposite in2="blur-5" operator="in"></feComposite>
      <feComposite in="SourceGraphic"></feComposite>
    </filter>
    <clipPath id="clippath">
      <path d="M3.4,20.2C1.5,30.3,8.2,40.1,18.4,42C28.5,43.9,38.3,37.2,40.2,27C42.1,16.9,35.4,7.1,25.2,5.2C25.2,5.2,25.2,5.2,25.2,5.2C15,3.3,5.3,10.1,3.4,20.2" fill="none" stroke-width="0" transform="translate(21.8,23.6017) translate(-21.8,-23.6017)"></path>
    </clipPath>
  </defs>
  <rect id="bg-color" width="423" height="423" fill="#f4f7fa" rx="0" stroke="none" display="none" transform="translate(111.991,97.15) translate(-111.991,-97.15)"></rect>
  <path d="M30.7,347.7C27.4,346.8,25.7,344.6,26.2,341.3C26.7,337.7,29.1,336.2,32.6,336.2L88.7,336.2C92.2,336.2,94.6,337.8,95.1,341.3C95.6,344.7,93.8,346.9,90.5,347.8C83.6,348.1,76.8,347.8,69.9,347.9C68.4,347.9,67,348.2,65.5,348.8C62.4,350.2,58.9,350.2,55.8,348.8C54.3,348.1,52.9,347.9,51.4,347.9C44.5,347.8,37.7,348.1,30.8,347.7L30.8,347.7Z" fill="#02102b" fill-rule="evenodd" stroke-width="0" transform="translate(60.6482,343.025) translate(-60.6482,-343.025)"></path>
  <path d="M57.4,376.5C59.2,376.5,60.9,376.5,62.7,376.5L62.7,404.9C60.1,404.9,60.1,404.9,57.4,404.9C57.4,392.1,57.4,389.2,57.4,376.4Z" fill="#95caeb" fill-rule="evenodd" stroke-width="0" transform="translate(60.05,390.65) translate(-60.05,-390.65)"></path>
  <path d="M66.3,348.6C66.3,348.6,66.1,368.2,66.1,378.3C64.8,378.6,63.8,378.9,62.8,379.1C61,380.7,59.3,380.7,57.6,379.1C56.7,378.9,55.7,378.7,54.6,378.4L54.6,348.6L66.4,348.6Z" fill="#095bb1" fill-rule="evenodd" stroke-width="0" transform="translate(60.5,364.45) translate(-60.5,-364.45)"></path>
  <path d="M75.9,405.1C80.8,404.7,83.7,406.4,83.3,411.9C82.1,413,81,412.5,80.1,411.5C80.1,410.6,80,409.7,79.9,408.7L40.1,408.7C40,409.6,39.9,410.5,39.8,411.5C38.8,412.3,37.9,412.3,37,411.3C36.4,406.7,38.8,404.9,43.1,405.1L76,405.1L76,405.1Z" fill="#095bb1" fill-rule="evenodd" stroke-width="0" transform="translate(60.1228,408.783) translate(-60.1228,-408.783)"></path>
  <path d="M42.7,415.9C42.7,418.5,40.7,420.6,38.3,420.6C35.9,420.6,33.9,418.5,33.9,415.9C33.9,413.3,35.9,411.2,38.3,411.2C40.7,411.2,42.7,413.3,42.7,415.9Z" fill="#0b2a63" fill-rule="evenodd" stroke-width="0" transform="translate(38.3,415.9) translate(-38.3,-415.9)"></path>
  <path d="M86.3,415.9C86.3,418.5,84.3,420.6,81.9,420.6C79.5,420.6,77.5,418.5,77.5,415.9C77.5,413.3,79.5,411.2,81.9,411.2C84.3,411.2,86.3,413.3,86.3,415.9Z" fill="#02102b" fill-rule="evenodd" stroke-width="0" transform="translate(81.9,415.9) translate(-81.9,-415.9)"></path>
  <path d="M100.9,258.1L156.2,258.1C158,258.1,159.1,260.2,158.3,262L141.5,301.8L79.4,301.8L96.7,261.1C97.5,259.2,99.1,258,101,258L101,258Z" fill="#95caeb" stroke-width="0" transform="translate(118.983,279.9) translate(-118.983,-279.9)"></path>
  <path d="M118.5,301.8L60.4,301.8C60.4,304.8,62.5,307.3,65.1,307.3L118.4,307.3L118.4,301.8Z" fill="#1474c4" stroke-width="0" transform="translate(89.45,304.55) translate(-89.45,-304.55)"></path>
  <path d="M96.6,261.1C97.4,259.2,99,258,100.9,258L156.2,258C158,258,159.1,260.1,158.3,261.9L157.6,263.4L95.5,263.4L96.5,261Z" fill="#1474c4" stroke-width="0" transform="translate(127.033,260.7) translate(-127.033,-260.7)"></path>
  <path d="M138,301.8L156.5,258.1C158.1,258.3,159.1,260.3,158.3,262L139.2,307.3L117.9,307.3C115.3,307.3,113.2,304.9,113.2,301.8L138.1,301.8Z" fill="#001b41" stroke-width="0" transform="translate(135.891,282.7) translate(-135.891,-282.7)"></path>
  <path d="M124.2,271.4L99.3,271.4" fill="none" stroke="#001b41" stroke-linecap="round" stroke-miterlimit="10" stroke-width="0.8" transform="translate(111.75,271.4) translate(-111.75,-271.4)"></path>
  <path d="M122.4,275.5L97.5,275.5" fill="none" stroke="#001b41" stroke-linecap="round" stroke-miterlimit="10" stroke-width="0.8" transform="translate(109.95,275.5) translate(-109.95,-275.5)"></path>
  <path d="M120.7,279.6L95.8,279.6" fill="none" stroke="#001b41" stroke-linecap="round" stroke-miterlimit="10" stroke-width="0.8" transform="translate(108.25,279.6) translate(-108.25,-279.6)"></path>
  <path d="M110.9,283.7L94.3,283.7" fill="none" stroke="#001b41" stroke-linecap="round" stroke-miterlimit="10" stroke-width="0.8" transform="translate(102.6,283.7) translate(-102.6,-283.7)"></path>
  <path d="M129,345.6L119.6,410.6L98.8,408.5L99.5,343.9L100.7,330.6L129,345.6Z" fill="#1474c4" stroke-width="0" transform="translate(113.9,370.6) translate(-113.9,-370.6)"></path>
  <path d="M155.5,419.1L182.6,419.1L174.7,410.6L152.4,410.6L148.4,411.9C148,418.2,153.4,419.2,155.5,419.2Z" fill="#1474c4" stroke-width="0" transform="translate(165.489,414.9) translate(-165.489,-414.9)"></path>
  <path d="M102.9,307.3L175.9,411.9L148.4,411.9L94.2,343.9L103,307.2Z" fill="#95caeb" stroke-width="0" transform="translate(135.05,359.55) translate(-135.05,-359.55)"></path>
  <path d="M104.3,417L131.6,417C131.6,417,125.5,412.3,125.5,412.3L102.8,399.8L98.8,408.6L99.4,413.1C99.9,415.4,101.9,417.1,104.3,417.1Z" fill="#1474c4" stroke-width="0" transform="translate(115.2,408.45) translate(-115.2,-408.45)"></path>
  <path d="M62.7,343.9L94.7,343.9L102.9,307.2L32.1,307.2L39.9,327.5C43.7,337.4,52.8,343.9,62.8,343.9Z" fill="#96cced" stroke-width="0" transform="translate(67.5,325.55) translate(-67.5,-325.55)"></path>
  <path d="M71.7,251.5L68.5,240.8L86.9,237.3L95.7,266.8C98,274.6,90.5,281.8,82.8,279.1L62.2,271.9L71.7,308.2L32.7,308.2L21.9,261.1C19,248.3,31.4,237.3,43.7,241.7L71.7,251.6L71.7,251.6Z" fill="#001b41" stroke-width="0" transform="translate(58.7977,272.75) translate(-58.7977,-272.75)"></path>
  <path d="M87,237.4L84,227.3C83,223.9,79.6,221.9,76.2,222.7L65.6,225.1C62.9,225.7,60.8,227.9,60.3,230.6C59.8,233.3,61,236.1,63.4,237.6L68.7,241L87.1,237.5Z" fill="#ffd176" stroke-width="0" transform="translate(73.644,231.762) translate(-73.644,-231.762)"></path>
  <path d="M129.6,222.5L129.6,266.4" fill="none" stroke="#d746f5" transform="translate(129.6,244.45) translate(-129.6,-244.45)"></path>
  <path d="M53.8,266.2L34.7,263" fill="none" stroke="#1474c4" stroke-linecap="round" stroke-miterlimit="10" stroke-width="0.8" transform="translate(44.25,264.6) translate(-44.25,-264.6)"></path>
  <path d="M129.6,268.2C122.2,268.2,116.3,262.2,116.3,254.9C116.3,247.6,122.3,241.6,129.6,241.6C136.9,241.6,142.9,247.6,142.9,254.9C142.9,262.2,136.9,268.2,129.6,268.2Z" fill="#d746f5" stroke-width="0" transform="translate(129.6,254.9) translate(-129.6,-254.9)"></path>
  <path d="M127.7,260.7C127.4,260.7,127.2,260.6,127,260.3L123.7,255.3C123.4,254.9,123.5,254.4,123.9,254.1C124.3,253.8,124.8,253.9,125.1,254.3L127.7,258.3L133.7,249.3C134,248.9,134.5,248.8,134.9,249.1C135.3,249.4,135.4,249.9,135.1,250.3L128.4,260.3C128.2,260.5,128,260.7,127.7,260.7Z" fill="#fff" stroke-width="0" transform="translate(129.4,254.813) translate(-129.4,-254.813)"></path>
  <g id="head" transform="translate(30.472,217.71) translate(-21.7364,-22.6723)" style="animation: 4.067s linear infinite both head_t;">
    <g id="Gruppe_2375" transform="translate(35.7671,22.7524) translate(-35.75,-22.75)">
      <path id="Pfad_6357" d="M43.2,24.1C42.4,28.2,38.5,30.9,34.4,30.2C30.3,29.5,27.6,25.5,28.3,21.4C29.1,17.3,33,14.6,37.1,15.3C41.2,16.1,43.9,20,43.2,24.1C43.2,24.1,43.2,24.1,43.2,24.1" fill="#101111" stroke-width="0" transform="translate(35.75,22.75) translate(-35.75,-22.75)"></path>
    </g>
    <g id="Gruppe_2377" transform="translate(21.7364,23.6082) translate(-21.7193,-23.6059)">
      <g clip-path="url(#clippath)" transform="translate(21.7193,23.6059) translate(-21.7193,-23.6059)">
        <g id="Gruppe_2376" transform="translate(21.7193,23.6059) translate(-21.7193,-23.6059)">
          <rect id="Rechteck_959" width="37.3" height="37.3" fill="#ffd176" stroke-width="0" transform="translate(-5.4,40.7) rotate(-79.5) translate(3.1,4.9)"></rect>
        </g>
      </g>
    </g>
    <g id="Gruppe_2392" transform="translate(19.6856,13.4778) translate(-19.6685,-13.4755)">
      <path id="Pfad_6363" d="M36.8,14.4L5,26.8C4.1,27.2,3,26.8,2.7,25.8C-1.1,16,3.7,5.1,13.4,1.3C13.4,1.3,13.4,1.3,13.4,1.3L13.4,1.3C23.1,-2.5,34,2.3,37.8,12C38.2,12.9,37.7,14,36.8,14.3" fill="#94c9e9" stroke-width="0" transform="translate(19.6685,13.4755) translate(-19.6685,-13.4755)"></path>
    </g>
    <path id="Pfad_6366" d="M21.9,20.1C22.1,20.1,22.4,20.1,22.6,19.9L50.1,10C51.5,9.5,52.2,8,51.8,6.6C51.3,5.2,49.8,4.5,48.4,4.9C48.4,4.9,48.4,4.9,48.4,4.9L20.9,14.8C19.5,15.3,18.8,16.9,19.3,18.3C19.7,19.4,20.8,20.2,22,20.1" fill="#02102b" stroke-width="0" transform="translate(35.5424,12.4508) translate(-35.5253,-12.4484)"></path>
    <path id="Pfad_6365" d="M8.5,25.3C2.6,11.4,8.3,4.2,8.3,4.2C8.3,4.2,16.311,-1.48717,23.8685,6.31477C25.9754,8.48974,28.047,11.713,29.9,16.4" fill="none" stroke="#000" stroke-miterlimit="10" stroke-width="0.2" transform="translate(17.8796,13.7519) translate(-17.8625,-13.7496)"></path>
    <path id="Pfad_6367" d="M14.8,24.2C13.1,23.9,11.3,24.2,9.8,25C4,16.2,9,4.2,17.3,0.1C8.8,-1.5,-2.5,15.7,6.2,29C4.6,33,6.6,37.5,10.6,39.1C14.6,40.7,19.1,38.7,20.7,34.7C22.3,30.7,20.3,26.2,16.3,24.6C15.8,24.4,15.4,24.3,14.9,24.2" fill="#101111" stroke-width="0" transform="translate(12.1773,19.8265) translate(-12.1601,-19.8242)"></path>
    <path id="Pfad_6368" d="M12.2,37L12.2,37C9.5,36.5,7.8,33.9,8.3,31.3C8.8,28.6,11.4,26.9,14,27.4C16.7,27.9,18.4,30.5,17.9,33.1C17.9,33.1,17.9,33.1,17.9,33.1C17.4,35.8,14.8,37.5,12.2,37" fill="#222" stroke-width="0" transform="translate(13.1171,32.2024) translate(-13.1,-32.2)"></path>
  </g>
  <path d="M96.3,147.8L165.5,147.8C167.8,147.8,169.6,149.7,169.6,151.9L169.6,169.1L92.1,169.1L92.1,151.9C92.1,149.6,94,147.8,96.2,147.8Z" fill="#fff" stroke="#d746f5" transform="translate(130.85,158.45) translate(-130.85,-158.45)"></path>
  <path d="M96.3,147.8L165.5,147.8C167.8,147.8,169.6,149.7,169.6,151.9L169.6,218.1C169.6,220.4,167.7,222.2,165.5,222.2L96.3,222.2C94,222.2,92.2,220.3,92.2,218.1L92.2,151.9C92.2,149.6,94.1,147.8,96.3,147.8Z" fill="none" stroke="#d746f5" transform="translate(130.9,185) translate(-130.9,-185)"></path>
  <path fill="#001b41" d="M7.00942,-3.96509C7.00942,-2.65936,6.66702,-1.67208,5.98223,-1.00325C5.29743,-0.334416,4.29152,0,2.9645,0L1.10171,0L1.10171,-7.78115L3.204,-7.78115C4.44587,-7.78115,5.39057,-7.45649,6.03811,-6.80718C6.68565,-6.15786,7.00942,-5.2105,7.00942,-3.96509ZM6.41865,-3.9438C6.41865,-5.05793,6.13568,-5.89618,5.56975,-6.45857C5.00382,-7.02096,4.17266,-7.30215,3.07627,-7.30215L1.64458,-7.30215L1.64458,-0.479004L2.93257,-0.479004C5.25662,-0.479004,6.41865,-1.63394,6.41865,-3.9438ZM10.9926,0.106445C10.1517,0.106445,9.49618,-0.152572,9.02605,-0.670605C8.55592,-1.18864,8.32085,-1.91424,8.32085,-2.84741C8.32085,-3.76994,8.54793,-4.50885,9.0021,-5.06414C9.45627,-5.61943,10.0683,-5.89707,10.8383,-5.89707C11.5195,-5.89707,12.0571,-5.65934,12.4509,-5.18389C12.8448,-4.70843,13.0417,-4.06266,13.0417,-3.24658L13.0417,-2.8208L8.87436,-2.8208C8.88146,-2.02601,9.06685,-1.41927,9.43054,-1.00059C9.79423,-0.581901,10.3149,-0.372559,10.9926,-0.372559C11.3226,-0.372559,11.6127,-0.395622,11.8628,-0.441748C12.113,-0.487874,12.4296,-0.587223,12.8128,-0.739795L12.8128,-0.260791C12.4864,-0.118864,12.1848,-0.0221761,11.9081,0.0292725C11.6313,0.080721,11.3262,0.106445,10.9926,0.106445ZM10.8383,-5.42871C10.2812,-5.42871,9.83415,-5.24509,9.49707,-4.87786C9.15999,-4.51062,8.96307,-3.98105,8.9063,-3.28916L12.4829,-3.28916C12.4829,-3.95977,12.3374,-4.48401,12.0464,-4.86189C11.7555,-5.23977,11.3528,-5.42871,10.8383,-5.42871ZM17.1154,0.106445C16.2248,0.106445,15.5755,-0.227083,15.1674,-0.894141L15.1302,-0.894141L15.1461,-0.44707C15.1603,-0.184505,15.1674,0.102897,15.1674,0.415137L15.1674,2.61855L14.6405,2.61855L14.6405,-5.7853L15.0876,-5.7853L15.1887,-4.96035L15.2207,-4.96035C15.618,-5.58483,16.2532,-5.89707,17.126,-5.89707C17.9066,-5.89707,18.5018,-5.64071,18.9116,-5.128C19.3215,-4.61529,19.5264,-3.86929,19.5264,-2.88999C19.5264,-1.93908,19.3108,-1.20194,18.8797,-0.678589C18.4486,-0.155233,17.8605,0.106445,17.1154,0.106445ZM17.1047,-0.361914C17.6973,-0.361914,18.1559,-0.581901,18.4805,-1.02187C18.8052,-1.46185,18.9675,-2.07746,18.9675,-2.8687C18.9675,-4.56828,18.3537,-5.41807,17.126,-5.41807C16.4519,-5.41807,15.9569,-5.23267,15.6411,-4.86189C15.3253,-4.4911,15.1674,-3.88703,15.1674,-3.04966L15.1674,-2.87935C15.1674,-1.97456,15.3191,-1.32879,15.6225,-0.942041C15.9259,-0.55529,16.4199,-0.361914,17.1047,-0.361914ZM21.6518,0L21.1249,0L21.1249,-8.28144L21.6518,-8.28144ZM28.3784,-2.90063C28.3784,-1.95682,28.1495,-1.21969,27.6918,-0.689233C27.2341,-0.158781,26.6025,0.106445,25.7971,0.106445C25.2897,0.106445,24.8426,-0.0159668,24.4559,-0.260791C24.0691,-0.505615,23.7728,-0.856885,23.567,-1.3146C23.3612,-1.77231,23.2584,-2.30099,23.2584,-2.90063C23.2584,-3.84445,23.4872,-4.57981,23.9449,-5.10671C24.4026,-5.63362,25.0307,-5.89707,25.829,-5.89707C26.6238,-5.89707,27.2474,-5.63007,27.6998,-5.09607C28.1522,-4.56207,28.3784,-3.83026,28.3784,-2.90063ZM23.8119,-2.90063C23.8119,-2.10584,23.9866,-1.4858,24.3361,-1.0405C24.6856,-0.595207,25.1797,-0.372559,25.8184,-0.372559C26.457,-0.372559,26.9511,-0.595207,27.3006,-1.0405C27.6501,-1.4858,27.8249,-2.10584,27.8249,-2.90063C27.8249,-3.69897,27.6483,-4.31813,27.2953,-4.75811C26.9422,-5.19808,26.4464,-5.41807,25.8077,-5.41807C25.169,-5.41807,24.6767,-5.19897,24.3308,-4.76077C23.9848,-4.32257,23.8119,-3.70252,23.8119,-2.90063ZM28.7812,-5.7853L29.3241,-5.7853L30.5482,-2.53872C30.9208,-1.54168,31.1568,-0.869303,31.2561,-0.521582L31.288,-0.521582C31.4371,-0.979297,31.6801,-1.66232,32.0172,-2.57065L33.2413,-5.7853L33.7842,-5.7853L31.1922,0.936719C30.9829,1.48314,30.8073,1.85215,30.6653,2.04375C30.5234,2.23535,30.3575,2.37905,30.1677,2.47485C29.9779,2.57065,29.7481,2.61855,29.4785,2.61855C29.2762,2.61855,29.0509,2.5813,28.8025,2.50679L28.8025,2.04907C29.0083,2.10584,29.2301,2.13423,29.4678,2.13423C29.6488,2.13423,29.8084,2.09165,29.9468,2.00649C30.0852,1.92134,30.2103,1.78917,30.322,1.60999C30.4338,1.4308,30.5633,1.14695,30.7106,0.758423C30.8578,0.369897,30.9527,0.11709,30.9953,0Z" fill-rule="nonzero" transform="translate(114.991,157.371) translate(-16.8906,4.22854)"></path>
  <path fill="#001b41" d="M8.24951,0L5.49258,0L2.65049,-5.48193L2.60259,-5.48193C2.67,-4.61973,2.70371,-3.96154,2.70371,-3.50737L2.70371,0L0.840918,0L0.840918,-7.78115L3.58721,-7.78115L6.41865,-2.37373L6.45059,-2.37373C6.40091,-3.15788,6.37607,-3.78768,6.37607,-4.26313L6.37607,-7.78115L8.24951,-7.78115ZM15.5553,-3.02837C15.5553,-2.04198,15.2901,-1.27291,14.7596,-0.721167C14.2292,-0.169425,13.4867,0.106445,12.5323,0.106445C11.6168,0.106445,10.8886,-0.175635,10.3475,-0.739795C9.80639,-1.30396,9.53584,-2.06681,9.53584,-3.02837C9.53584,-4.01121,9.80107,-4.77496,10.3315,-5.3196C10.862,-5.86425,11.6062,-6.13657,12.5642,-6.13657C13.1568,-6.13657,13.6801,-6.01061,14.1343,-5.75869C14.5884,-5.50677,14.9388,-5.14574,15.1854,-4.67561C15.432,-4.20548,15.5553,-3.6564,15.5553,-3.02837ZM11.6488,-3.02837C11.6488,-2.51034,11.718,-2.1156,11.8563,-1.84416C11.9947,-1.57273,12.2271,-1.43701,12.5536,-1.43701C12.8764,-1.43701,13.1044,-1.57273,13.2375,-1.84416C13.3705,-2.1156,13.4371,-2.51034,13.4371,-3.02837C13.4371,-3.54285,13.3696,-3.93138,13.2348,-4.19394C13.1,-4.45651,12.8694,-4.58779,12.5429,-4.58779C12.2236,-4.58779,11.9947,-4.4574,11.8563,-4.19661C11.718,-3.93582,11.6488,-3.5464,11.6488,-3.02837ZM21.7046,0L21.0233,-2.87402L20.8637,-3.74155L20.7572,-4.43877L20.7253,-4.43877C20.5514,-3.44528,20.4343,-2.81903,20.374,-2.56001L19.762,0L17.5745,0L15.9299,-6.03013L17.979,-6.03013L18.4687,-3.71494C18.6248,-2.92015,18.7153,-2.26019,18.7401,-1.73506L18.772,-1.73506C18.7827,-2.06149,18.8802,-2.68242,19.0647,-3.59785L19.6236,-6.03013L21.9228,-6.03013L22.4337,-3.56592C22.597,-2.78177,22.6999,-2.17148,22.7424,-1.73506L22.7744,-1.73506C22.7957,-2.00472,22.8311,-2.34091,22.8808,-2.74363C22.9305,-3.14635,22.9855,-3.47012,23.0458,-3.71494L23.578,-6.03013L25.5845,-6.03013L23.9293,0Z" fill-rule="nonzero" transform="translate(147.252,157.371) translate(-12.8516,4.22854)"></path>
  <g filter="url(#drop-shadow-1)" transform="translate(357.85,56.65) translate(-357.85,-56.65)">
    <path d="M331.2,26.7L384.5,26.7C386.3,26.7,387.8,28.2,387.8,30L387.8,83.3C387.8,85.1,386.3,86.6,384.5,86.6L331.2,86.6C329.4,86.6,327.9,85.1,327.9,83.3L327.9,30C327.9,28.2,329.4,26.7,331.2,26.7Z" fill="#fff" stroke-width="0" transform="translate(357.85,56.65) translate(-357.85,-56.65)"></path>
    <g id="svelte" transform="translate(357.9,56.7) translate(-357.9,-56.7)">
      <path d="M373.2,41.3C369.3,35.7,361.6,34.1,356,37.6L346.2,43.8C343.5,45.5,341.7,48.2,341.1,51.3C340.6,53.9,341.1,56.6,342.3,58.9C341.5,60.2,340.9,61.6,340.6,63.1C340,66.3,340.8,69.5,342.6,72.1C346.5,77.7,354.2,79.3,359.8,75.8L369.6,69.6C372.3,67.9,374.1,65.2,374.7,62.1C375.2,59.5,374.7,56.8,373.5,54.5C374.3,53.2,374.9,51.8,375.2,50.3C375.8,47.1,375,43.9,373.2,41.3" fill="#ff3e00" stroke-width="0" transform="translate(357.9,56.7) translate(-357.9,-56.7)"></path>
      <path d="M355,72.7C351.8,73.5,348.5,72.3,346.7,69.6C345.6,68,345.1,66.1,345.5,64.2C345.5,63.9,345.6,63.6,345.7,63.3L345.9,62.7L346.4,63.1C347.6,64,348.9,64.6,350.2,65L350.6,65C350.6,65.1,350.6,65.5,350.6,65.5C350.6,66,350.6,66.5,351,67C351.6,67.8,352.6,68.2,353.5,67.9C353.7,67.9,353.9,67.8,354.1,67.6L363.9,61.4C364.4,61.1,364.7,60.6,364.8,60C364.9,59.4,364.8,58.8,364.4,58.4C363.8,57.6,362.8,57.2,361.9,57.5C361.7,57.5,361.5,57.6,361.3,57.8L357.6,60.2C357,60.6,356.3,60.9,355.6,61.1C352.4,61.9,349.1,60.7,347.3,58C346.2,56.4,345.7,54.5,346.1,52.6C346.4,50.7,347.5,49.1,349.1,48.1L358.9,41.9C359.5,41.5,360.2,41.2,360.9,41C364.1,40.2,367.4,41.4,369.2,44.1C370.3,45.7,370.8,47.6,370.4,49.5C370.4,49.8,370.3,50.1,370.2,50.4L370,51L369.5,50.6C368.3,49.7,367,49.1,365.7,48.7L365.3,48.7C365.3,48.6,365.3,48.2,365.3,48.2C365.3,47.7,365.3,47.2,364.9,46.7C364.3,45.9,363.3,45.5,362.4,45.8C362.2,45.8,362,45.9,361.8,46.1L352,52.3C351.5,52.6,351.2,53.1,351.1,53.7C351,54.3,351.1,54.9,351.5,55.3C352.1,56.1,353.1,56.5,354,56.2C354.2,56.2,354.4,56.1,354.6,55.9L358.3,53.5C358.9,53.1,359.6,52.8,360.3,52.6C363.5,51.8,366.8,53,368.6,55.7C369.7,57.3,370.2,59.2,369.8,61.1C369.5,63,368.4,64.6,366.8,65.6L357,71.8C356.4,72.2,355.7,72.5,355,72.7" fill="#fff" stroke-width="0" transform="translate(357.95,56.85) translate(-357.95,-56.85)"></path>
    </g>
  </g>
  <g filter="url(#drop-shadow-2)" transform="translate(357.85,124.65) translate(-357.85,-124.65)">
    <path d="M331.2,94.7L384.5,94.7C386.3,94.7,387.8,96.2,387.8,98L387.8,151.3C387.8,153.1,386.3,154.6,384.5,154.6L331.2,154.6C329.4,154.6,327.9,153.1,327.9,151.3L327.9,98C327.9,96.2,329.4,94.7,331.2,94.7Z" fill="#fff" stroke-width="0" transform="translate(357.85,124.65) translate(-357.85,-124.65)"></path>
    <g id="angular" transform="translate(357.9,124.55) translate(-357.9,-124.55)">
      <path d="M357.9,103.6L338.4,110.6L341.4,136.4L357.9,145.6L374.4,136.4L377.4,110.6L357.9,103.6Z" fill="#dd0031" stroke-width="0" transform="translate(357.9,124.6) translate(-357.9,-124.6)"></path>
      <path d="M357.9,103.6L357.9,145.5L374.4,136.3L377.4,110.5L357.9,103.5Z" fill="#c3002f" stroke-width="0" transform="translate(367.65,124.5) translate(-367.65,-124.5)"></path>
      <path d="M357.9,108.3L345.7,135.6L350.2,135.6L352.7,129.5L363.1,129.5L365.6,135.6L370.1,135.6L357.9,108.3ZM361.5,125.8L354.4,125.8L358,117.2L361.6,125.8Z" fill="#fff" stroke-width="0" transform="translate(357.9,121.95) translate(-357.9,-121.95)"></path>
    </g>
  </g>
  <g filter="url(#drop-shadow-3)" transform="translate(357.95,192.65) translate(-357.95,-192.65)">
    <path d="M331.3,162.7L384.6,162.7C386.4,162.7,387.9,164.2,387.9,166L387.9,219.3C387.9,221.1,386.4,222.6,384.6,222.6L331.3,222.6C329.5,222.6,328,221.1,328,219.3L328,166C328,164.2,329.5,162.7,331.3,162.7Z" fill="#fff" stroke-width="0" transform="translate(357.95,192.65) translate(-357.95,-192.65)"></path>
    <g id="vue" transform="translate(357.95,192.7) translate(-357.95,-192.7)">
      <path fill="#48b280" stroke-width="0" d="M363,173.8L357.9,182.5L352.9,173.8L336.1,173.8L357.9,211.6L379.8,173.8L363,173.8Z" transform="translate(357.95,192.7) translate(-357.95,-192.7)"></path>
      <path fill="#364a5e" stroke-width="0" d="M363,173.8L357.9,182.5L352.9,173.8L344.8,173.8L357.9,196.5L371,173.8L363,173.8Z" transform="translate(357.9,185.15) translate(-357.9,-185.15)"></path>
    </g>
  </g>
  <g filter="url(#drop-shadow-4)" transform="translate(289.85,96.25) translate(-289.85,-96.25)">
    <path d="M263.2,66.3L316.5,66.3C318.3,66.3,319.8,67.8,319.8,69.6L319.8,122.9C319.8,124.7,318.3,126.2,316.5,126.2L263.2,126.2C261.4,126.2,259.9,124.7,259.9,122.9L259.9,69.6C259.9,67.8,261.4,66.3,263.2,66.3Z" fill="#fff" stroke-width="0" transform="translate(289.85,96.25) translate(-289.85,-96.25)"></path>
    <g id="amber" transform="translate(290.1,95.9) translate(-290.1,-95.9)">
      <path d="M290.1,74.9C301.7,74.9,311.1,84.3,311.1,95.9C311.1,107.5,301.7,116.9,290.1,116.9C278.5,116.9,269.1,107.5,269.1,95.9C269.1,84.3,278.5,74.9,290.1,74.9Z" fill="#e05c43" stroke-width="0" transform="translate(290.1,95.9) translate(-290.1,-95.9)"></path>
      <path d="M290.5,82.9C293.2,82.9,295.1,83.6,296.8,85.9C300.4,94.8,287.6,99.4,287.1,99.6L287.1,99.6C287.1,99.6,286.7,102,290.4,101.9C294.9,101.9,299.7,98.4,301.5,96.9C301.9,96.5,302.6,96.6,303,96.9L304.4,98.3C304.8,98.7,304.8,99.4,304.4,99.8C302.1,102.3,299.4,104.2,296.3,105.5C296.3,105.5,289.4,108.7,284.7,105.7C281.9,103.9,281.1,101.7,280.8,99.5C280.8,99.5,277.4,99.3,275.2,98.5C273,97.7,275.2,95.1,275.2,95.1C275.2,95.1,275.9,94,277.1,95.1C278.4,96.2,280.8,95.7,280.8,95.7C281,94,281.4,91.8,282.4,89.5C284.6,84.6,287.9,83,290.6,82.9ZM292.1,87.8C290.7,86.4,286.5,89.2,286.4,95.5C286.4,95.5,287.6,95.9,290.3,94C293,92.1,293.5,89.2,292.1,87.8Z" fill="#fff" fill-rule="evenodd" stroke-width="0" transform="translate(289.461,94.9417) translate(-289.461,-94.9417)"></path>
    </g>
  </g>
  <g filter="url(#drop-shadow-5)" transform="translate(289.85,164.25) translate(-289.85,-164.25)">
    <path d="M263.2,134.3L316.5,134.3C318.3,134.3,319.8,135.8,319.8,137.6L319.8,190.9C319.8,192.7,318.3,194.2,316.5,194.2L263.2,194.2C261.4,194.2,259.9,192.7,259.9,190.9L259.9,137.6C259.9,135.8,261.4,134.3,263.2,134.3Z" fill="#fff" stroke-width="0" transform="translate(289.85,164.25) translate(-289.85,-164.25)"></path>
  </g>
  <path id="ionic" d="M310.9,164.3C310.9,175.9,301.5,185.3,289.9,185.3C278.3,185.3,268.9,175.9,268.9,164.3C268.9,152.7,278.3,143.3,289.9,143.3C294.4,143.3,298.8,144.7,302.4,147.4C304.8,146.7,307.4,148.1,308.1,150.5C308.8,152.9,307.4,155.5,305,156.2C302.6,156.9,300,155.5,299.3,153.1C299.1,152.5,299.1,151.9,299.1,151.2C291.9,146.1,282,147.8,276.9,155C271.8,162.2,273.5,172.1,280.7,177.2C287.9,182.3,297.8,180.6,302.9,173.4C305.7,169.4,306.5,164.4,305.2,159.7C307,159.7,308.6,158.7,309.7,157.3C310.5,159.5,310.9,161.9,310.9,164.2ZM280.7,164.3C280.7,169.4,284.8,173.5,289.9,173.5C295,173.5,299.1,169.4,299.1,164.3C299.1,159.2,295,155.1,289.9,155.1C284.8,155.1,280.7,159.2,280.7,164.3Z" fill="#3880ff" stroke-width="0" transform="translate(289.9,164.3) translate(-289.9,-164.3)"></path>
  <g id="react_icon" transform="translate(289.85,232.65) translate(-289.85,-232.65)">
    <path d="M263.2,202.7L316.5,202.7C318.3,202.7,319.8,204.2,319.8,206L319.8,259.3C319.8,261.1,318.3,262.6,316.5,262.6L263.2,262.6C261.4,262.6,259.9,261.1,259.9,259.3L259.9,206C259.9,204.2,261.4,202.7,263.2,202.7Z" fill="#fff" stroke="#d746f5" transform="translate(289.85,232.65) translate(-289.85,-232.65)"></path>
    <g id="react" transform="translate(289.55,232.62) translate(-289.55,-232.62)">
      <path d="M305,225.3C304.5,225.1,304,225,303.5,224.8C303.5,224.5,303.7,224.1,303.7,223.8C304.8,218.2,304.1,213.7,301.5,212.2C299,210.8,295,212.2,290.9,215.8C290.5,216.1,290.1,216.5,289.7,216.9C289.4,216.7,289.2,216.4,288.9,216.2C284.6,212.4,280.4,210.8,277.8,212.3C275.3,213.7,274.6,218,275.6,223.2C275.7,223.7,275.8,224.2,275.9,224.8C275.3,225,274.7,225.2,274.2,225.3C269.2,227,266,229.8,266,232.6C266,235.4,269.4,238.5,274.6,240.2C275,240.3,275.4,240.5,275.9,240.6C275.8,241.2,275.6,241.7,275.5,242.3C274.5,247.5,275.3,251.6,277.7,253C280.2,254.5,284.5,253,288.6,249.3C288.9,249,289.3,248.7,289.6,248.4C290,248.8,290.4,249.2,290.9,249.6C294.9,253.1,298.9,254.4,301.3,253C303.8,251.5,304.7,247.1,303.6,241.7C303.6,241.3,303.4,240.9,303.3,240.4C303.6,240.4,303.9,240.2,304.2,240.1C309.6,238.3,313.1,235.4,313.1,232.4C313.1,229.6,309.8,226.8,304.7,225.1ZM292.3,217.3C295.8,214.3,299,213.1,300.5,213.9C302.1,214.8,302.7,218.5,301.7,223.3C301.7,223.6,301.6,223.9,301.5,224.2C299.4,223.7,297.3,223.4,295.2,223.2C294,221.5,292.7,219.8,291.2,218.2C291.6,217.9,291.9,217.5,292.3,217.2L292.3,217.2ZM280.1,235C280.5,235.8,281,236.6,281.4,237.4C281.9,238.2,282.4,239,282.9,239.8C281.4,239.6,280,239.4,278.6,239.1C279,237.8,279.5,236.4,280.1,234.9L280.1,234.9ZM280.1,230.3C279.5,228.9,279,227.5,278.6,226.2C279.9,225.9,281.4,225.7,282.9,225.5C282.4,226.3,281.9,227.1,281.5,227.9C281,228.7,280.6,229.5,280.2,230.3L280.2,230.3ZM281.2,232.7C281.8,231.4,282.5,230.1,283.2,228.9C283.9,227.7,284.7,226.4,285.5,225.3C286.9,225.2,288.3,225.1,289.8,225.1C291.3,225.1,292.7,225.1,294.1,225.3C294.9,226.5,295.7,227.7,296.4,228.9C297.1,230.1,297.8,231.4,298.4,232.7C297.8,234,297.1,235.3,296.4,236.5C295.7,237.7,294.9,239,294.1,240.2C292.7,240.3,291.3,240.4,289.8,240.4C288.3,240.4,286.9,240.4,285.5,240.3C284.7,239.1,283.9,237.9,283.2,236.6C282.5,235.4,281.8,234.1,281.2,232.8L281.2,232.8ZM298.1,237.5C298.6,236.7,299,235.8,299.5,235C300.1,236.4,300.6,237.7,301.1,239.2C299.6,239.5,298.2,239.8,296.7,239.9C297.2,239.1,297.7,238.3,298.1,237.5L298.1,237.5ZM299.4,230.3C299,229.5,298.5,228.7,298,227.8C297.5,227,297.1,226.2,296.6,225.4C298.1,225.6,299.5,225.8,300.9,226.2C300.5,227.6,300,228.9,299.4,230.3L299.4,230.3ZM289.7,219.8C290.7,220.9,291.6,222,292.5,223.2C290.6,223.2,288.8,223.2,286.9,223.2C287.8,222,288.8,220.9,289.7,219.8L289.7,219.8ZM278.8,214C280.4,213.1,283.9,214.4,287.5,217.7C287.7,217.9,288,218.1,288.2,218.4C286.8,220,285.4,221.6,284.2,223.4C282.1,223.6,280,223.9,277.9,224.4C277.8,223.9,277.7,223.4,277.6,222.9L277.6,222.9C276.7,218.4,277.3,215,278.8,214.1L278.8,214.1ZM276.5,238.7C276.1,238.6,275.7,238.5,275.3,238.3C273.3,237.7,271.4,236.7,269.8,235.4C268.9,234.7,268.2,233.7,268,232.6C268,230.9,270.6,228.7,274.8,227.2C275.3,227,275.9,226.8,276.4,226.7C277,228.7,277.8,230.7,278.7,232.7C277.8,234.7,277,236.7,276.4,238.7L276.4,238.7ZM287.4,247.9C285.9,249.3,284.1,250.4,282.1,251.2C281.1,251.7,279.9,251.7,278.8,251.3C277.3,250.4,276.7,247.1,277.5,242.7C277.6,242.2,277.7,241.7,277.8,241.1C279.9,241.6,282,241.9,284.2,242C285.4,243.8,286.8,245.4,288.2,247C287.9,247.3,287.6,247.6,287.3,247.8L287.3,247.8ZM289.7,245.6C288.7,244.6,287.8,243.4,286.9,242.2C287.8,242.2,288.7,242.2,289.7,242.2C290.7,242.2,291.6,242.2,292.5,242.2C291.6,243.4,290.7,244.5,289.7,245.6L289.7,245.6ZM301.9,248.4C301.9,249.5,301.3,250.6,300.4,251.3C298.9,252.2,295.7,251,292.3,248.1C291.9,247.8,291.5,247.4,291.1,247C292.5,245.4,293.9,243.7,295.1,242C297.3,241.8,299.4,241.5,301.5,241C301.5,241.4,301.7,241.8,301.8,242.1C302.3,244.1,302.3,246.3,302,248.3L302,248.3ZM303.6,238.3C303.3,238.3,303.1,238.5,302.8,238.5C302.1,236.5,301.3,234.5,300.4,232.5C301.3,230.6,302.1,228.6,302.7,226.6C303.2,226.7,303.6,226.9,304.1,227C308.5,228.5,311.1,230.7,311.1,232.4C311.1,234.1,308.2,236.6,303.6,238.1L303.6,238.1Z" fill="#61dafb" stroke-width="0" transform="translate(289.55,232.62) translate(-289.55,-232.62)"></path>
      <path d="M289.8,228.4C292.1,228.4,294,230.3,294,232.6C294,234.9,292.1,236.8,289.8,236.8C287.5,236.8,285.6,234.9,285.6,232.6L285.6,232.6C285.6,230.3,287.5,228.4,289.8,228.4" fill="#61dafb" stroke-width="0" transform="translate(289.8,232.6) translate(-289.8,-232.6)"></path>
    </g>
  </g>
  <path id="dotted_line" d="M169.6,189.7L208.9,189.7C211.1,189.7,212.9,191.5,212.9,193.7L212.9,206.5L212.9,206.5L212.9,228.8C212.9,231,214.7,232.8,216.9,232.8L257.6,232.8" fill="none" stroke="#d746f5" stroke-dasharray="0 0 4 4" stroke-linecap="round" stroke-dashoffset="2" stroke-width="1" stroke-miterlimit="7" transform="translate(213.6,211.25) translate(-213.6,-211.25)" style="animation: 4.067s linear infinite both dotted_line_do;"></path>
  <g id="cursor" transform="translate(327.85,266.4) translate(-327.85,-266.4)" style="animation: 4.067s linear infinite both cursor_t;">
    <path d="M312.2,247.1L326.3,271.6L343.6,269.9L312.2,247.2Z" fill="#001b41" stroke-width="0" transform="translate(327.9,259.35) translate(-327.9,-259.35)"></path>
    <path d="M312.2,247.1L326.3,271.6L316.1,285.7L312.1,247.1Z" fill="#3196d6" stroke-width="0" transform="translate(319.2,266.4) translate(-319.2,-266.4)"></path>
  </g>
  <path id="Pfad_103" d="M259.9,236C261.7,236,263.1,234.6,263.1,232.8C263.1,231,261.7,229.6,259.9,229.6C258.1,229.6,256.7,231,256.7,232.8L256.7,232.8C256.7,234.6,258.1,236,259.9,236L259.9,236Z" fill="#fff" stroke="#d746f5" transform="translate(259.9,232.8) translate(-259.9,-232.8)"></path>
  <path id="Pfad_103-2" d="M169.6,192.6C171.4,192.6,172.8,191.2,172.8,189.4C172.8,187.6,171.4,186.2,169.6,186.2C167.8,186.2,166.4,187.6,166.4,189.4L166.4,189.4C166.4,191.2,167.8,192.6,169.6,192.6L169.6,192.6Z" fill="#fff" stroke="#d746f5" transform="translate(169.6,189.4) translate(-169.6,-189.4)"></path>
  <path id="gear-big" d="M151.2,189.4L148.2,186.3L144.9,187.7C144,187.1,143,186.7,141.9,186.4L140.7,183L136.4,183C136.4,183,135.1,186.2,135.1,186.2C134.1,186.5,133,186.9,132.1,187.4L128.9,185.9L125.8,188.9L127.2,192.2C126.6,193.1,126.2,194.1,125.9,195.2L122.5,196.4L122.5,200.7C122.5,200.7,125.7,202,125.7,202C126,203,126.4,204.1,126.9,205L125.4,208.2L128.4,211.3L131.7,209.9C132.6,210.5,133.6,210.9,134.7,211.2L135.9,214.6L140.2,214.6C140.2,214.6,141.5,211.4,141.5,211.4C142.5,211.1,143.6,210.7,144.5,210.2L147.7,211.7L150.8,208.7L149.4,205.4C150,204.5,150.4,203.5,150.7,202.4L154.1,201.2L154.1,196.9C154.1,196.9,150.9,195.6,150.9,195.6C150.6,194.6,150.2,193.5,149.7,192.6L151.2,189.4ZM143.6,204.3C140.5,207.2,135.6,207.1,132.7,204.1C129.8,201.1,129.9,196.1,132.9,193.2C135.9,190.3,140.9,190.4,143.8,193.4C146.7,196.4,146.6,201.4,143.6,204.3Z" fill="#001b41" stroke-width="0" transform="translate(138.3,198.8) rotate(360) translate(-138.3,-198.8)" style="animation: 4.067s linear infinite both gear-big_t;"></path>
  <path id="gear-small" d="M21.8,8.6L20.8,5.8L18.3,5.8C17.9,5.1,17.3,4.6,16.8,4.1L17,1.6L14.3,0.3L12.5,2C11.8,1.9,11,1.8,10.2,2L8.6,0.1L5.8,1.1L5.8,3.6C5.1,4,4.6,4.6,4.1,5.1L1.6,4.9L0.3,7.6L2,9.4C1.9,10.1,1.8,10.9,2,11.7L0.1,13.3L1.1,16.1L3.6,16.1C4,16.8,4.6,17.3,5.1,17.8L4.9,20.3L7.6,21.6L9.4,19.9C10.1,20,10.9,20.1,11.7,19.9L13.3,21.8L16.1,20.8L16.1,18.3C16.8,17.9,17.3,17.3,17.8,16.8L20.3,17L21.6,14.3L19.9,12.5C20,11.8,20.1,11,19.9,10.2L21.8,8.6ZM12.7,16C9.9,17,6.8,15.6,5.8,12.8C4.8,10,6.2,6.9,9,5.9C11.8,4.9,14.9,6.3,15.9,9.1C16.9,11.9,15.5,15,12.7,16Z" fill="#1474c4" stroke-width="0" transform="translate(114.817,187.129) translate(-10.95,-10.95)" style="animation: 4.067s linear infinite both gear-small_t;"></path>
</svg>
